<?xml version="1.0" encoding="UTF-8"?>
<svg xmlns="http://www.w3.org/2000/svg" xmlns:xlink="http://www.w3.org/1999/xlink" width="375pt" height="374.999991pt" viewBox="0 0 375 374.999991" version="1.2">
<defs>
<clipPath id="clip1">
  <path d="M 135 33.660156 L 359.375 33.660156 L 359.375 341.128906 L 135 341.128906 Z M 135 33.660156 "/>
</clipPath>
<clipPath id="clip2">
  <path d="M 15.875 116 L 159 116 L 159 259 L 15.875 259 Z M 15.875 116 "/>
</clipPath>
</defs>
<g id="surface1">
<g clip-path="url(#clip1)" clip-rule="nonzero">
<path style=" stroke:none;fill-rule:nonzero;fill:rgb(85.099792%,85.099792%,85.099792%);fill-opacity:1;" d="M 359.375 187.378906 L 205.390625 33.628906 L 205.390625 116.417969 L 135.09375 116.417969 C 136.539062 117.394531 137.953125 118.414062 139.335938 119.476562 C 140.71875 120.539062 142.066406 121.644531 143.382812 122.789062 C 144.699219 123.933594 145.976562 125.117188 147.222656 126.339844 C 148.464844 127.5625 149.667969 128.824219 150.835938 130.121094 C 152 131.414062 153.125 132.746094 154.210938 134.109375 C 155.296875 135.476562 156.339844 136.871094 157.339844 138.300781 C 158.339844 139.730469 159.292969 141.1875 160.203125 142.671875 C 161.113281 144.160156 161.976562 145.671875 162.796875 147.210938 C 163.613281 148.75 164.386719 150.3125 165.105469 151.898438 C 165.828125 153.484375 166.503906 155.09375 167.128906 156.71875 C 167.753906 158.347656 168.328125 159.992188 168.851562 161.652344 C 169.375 163.316406 169.847656 164.992188 170.269531 166.683594 C 170.691406 168.375 171.058594 170.074219 171.378906 171.789062 C 171.695312 173.503906 171.960938 175.222656 172.171875 176.953125 C 172.382812 178.683594 172.542969 180.417969 172.648438 182.15625 C 172.757812 183.894531 172.808594 185.636719 172.808594 187.378906 C 172.808594 189.121094 172.757812 190.863281 172.648438 192.601562 C 172.542969 194.339844 172.382812 196.074219 172.171875 197.804688 C 171.960938 199.535156 171.695312 201.257812 171.378906 202.96875 C 171.058594 204.683594 170.691406 206.386719 170.269531 208.074219 C 169.847656 209.765625 169.375 211.445312 168.851562 213.105469 C 168.328125 214.769531 167.753906 216.414062 167.128906 218.039062 C 166.503906 219.667969 165.828125 221.273438 165.105469 222.859375 C 164.386719 224.445312 163.613281 226.007812 162.796875 227.546875 C 161.976562 229.085938 161.113281 230.597656 160.203125 232.085938 C 159.292969 233.570312 158.339844 235.03125 157.339844 236.457031 C 156.339844 237.886719 155.296875 239.28125 154.210938 240.648438 C 153.125 242.011719 152 243.34375 150.835938 244.640625 C 149.667969 245.9375 148.464844 247.195312 147.222656 248.417969 C 145.976562 249.640625 144.699219 250.824219 143.382812 251.96875 C 142.066406 253.113281 140.71875 254.21875 139.335938 255.28125 C 137.953125 256.34375 136.539062 257.363281 135.09375 258.339844 L 205.390625 258.339844 L 205.390625 341.128906 Z M 359.375 187.378906 "/>
</g>
<g clip-path="url(#clip2)" clip-rule="nonzero">
<path style=" stroke:none;fill-rule:nonzero;fill:rgb(85.099792%,85.099792%,85.099792%);fill-opacity:1;" d="M 158.011719 187.378906 C 158.011719 188.539062 157.984375 189.703125 157.925781 190.859375 C 157.871094 192.019531 157.785156 193.179688 157.671875 194.335938 C 157.558594 195.492188 157.414062 196.644531 157.242188 197.792969 C 157.074219 198.941406 156.875 200.085938 156.648438 201.222656 C 156.421875 202.363281 156.164062 203.496094 155.882812 204.621094 C 155.601562 205.75 155.289062 206.867188 154.953125 207.976562 C 154.613281 209.089844 154.25 210.191406 153.859375 211.285156 C 153.464844 212.378906 153.046875 213.460938 152.601562 214.535156 C 152.15625 215.609375 151.6875 216.667969 151.191406 217.71875 C 150.691406 218.769531 150.167969 219.804688 149.621094 220.832031 C 149.074219 221.855469 148.5 222.863281 147.902344 223.859375 C 147.304688 224.855469 146.683594 225.835938 146.035156 226.804688 C 145.390625 227.769531 144.71875 228.71875 144.027344 229.652344 C 143.335938 230.582031 142.617188 231.5 141.882812 232.398438 C 141.144531 233.292969 140.382812 234.171875 139.601562 235.035156 C 138.820312 235.894531 138.019531 236.734375 137.199219 237.558594 C 136.375 238.378906 135.53125 239.179688 134.671875 239.957031 C 133.808594 240.738281 132.929688 241.496094 132.03125 242.234375 C 131.128906 242.96875 130.214844 243.683594 129.28125 244.375 C 128.34375 245.066406 127.394531 245.738281 126.429688 246.382812 C 125.460938 247.027344 124.476562 247.648438 123.480469 248.246094 C 122.484375 248.84375 121.472656 249.414062 120.445312 249.960938 C 119.421875 250.507812 118.382812 251.03125 117.328125 251.527344 C 116.277344 252.023438 115.214844 252.496094 114.140625 252.9375 C 113.066406 253.382812 111.980469 253.800781 110.886719 254.191406 C 109.792969 254.585938 108.6875 254.949219 107.574219 255.285156 C 106.460938 255.621094 105.339844 255.933594 104.210938 256.214844 C 103.085938 256.496094 101.949219 256.75 100.808594 256.976562 C 99.667969 257.203125 98.523438 257.402344 97.371094 257.574219 C 96.222656 257.742188 95.066406 257.886719 93.910156 258 C 92.753906 258.113281 91.59375 258.199219 90.429688 258.253906 C 89.269531 258.3125 88.105469 258.339844 86.945312 258.339844 C 85.78125 258.339844 84.617188 258.3125 83.457031 258.253906 C 82.296875 258.199219 81.136719 258.113281 79.976562 258 C 78.820312 257.886719 77.667969 257.742188 76.515625 257.574219 C 75.367188 257.402344 74.21875 257.203125 73.078125 256.976562 C 71.9375 256.75 70.804688 256.496094 69.675781 256.214844 C 68.546875 255.933594 67.425781 255.621094 66.3125 255.285156 C 65.199219 254.949219 64.097656 254.585938 63 254.191406 C 61.90625 253.800781 60.820312 253.382812 59.746094 252.9375 C 58.671875 252.496094 57.609375 252.023438 56.558594 251.527344 C 55.507812 251.03125 54.46875 250.507812 53.441406 249.960938 C 52.417969 249.414062 51.40625 248.84375 50.40625 248.246094 C 49.410156 247.648438 48.425781 247.027344 47.460938 246.382812 C 46.492188 245.738281 45.542969 245.066406 44.609375 244.375 C 43.675781 243.683594 42.757812 242.96875 41.859375 242.234375 C 40.960938 241.496094 40.078125 240.738281 39.21875 239.957031 C 38.355469 239.179688 37.511719 238.378906 36.691406 237.558594 C 35.867188 236.734375 35.066406 235.894531 34.285156 235.035156 C 33.503906 234.171875 32.746094 233.292969 32.007812 232.398438 C 31.269531 231.5 30.554688 230.582031 29.859375 229.652344 C 29.167969 228.71875 28.5 227.769531 27.851562 226.804688 C 27.207031 225.835938 26.585938 224.855469 25.984375 223.859375 C 25.386719 222.863281 24.816406 221.855469 24.265625 220.832031 C 23.71875 219.804688 23.195312 218.769531 22.699219 217.71875 C 22.203125 216.667969 21.730469 215.609375 21.285156 214.535156 C 20.839844 213.460938 20.421875 212.378906 20.03125 211.285156 C 19.636719 210.191406 19.273438 209.089844 18.933594 207.976562 C 18.597656 206.867188 18.289062 205.75 18.003906 204.621094 C 17.722656 203.496094 17.46875 202.363281 17.242188 201.222656 C 17.015625 200.085938 16.816406 198.941406 16.644531 197.792969 C 16.472656 196.644531 16.332031 195.492188 16.21875 194.335938 C 16.101562 193.179688 16.019531 192.019531 15.960938 190.859375 C 15.902344 189.703125 15.875 188.539062 15.875 187.378906 C 15.875 186.21875 15.902344 185.058594 15.960938 183.898438 C 16.019531 182.738281 16.101562 181.578125 16.21875 180.425781 C 16.332031 179.269531 16.472656 178.117188 16.644531 176.96875 C 16.816406 175.820312 17.015625 174.675781 17.242188 173.535156 C 17.46875 172.394531 17.722656 171.261719 18.003906 170.136719 C 18.289062 169.011719 18.597656 167.890625 18.933594 166.78125 C 19.273438 165.667969 19.636719 164.566406 20.03125 163.472656 C 20.421875 162.378906 20.839844 161.296875 21.285156 160.222656 C 21.730469 159.152344 22.203125 158.089844 22.699219 157.039062 C 23.195312 155.988281 23.71875 154.953125 24.265625 153.929688 C 24.816406 152.902344 25.386719 151.894531 25.984375 150.898438 C 26.585938 149.902344 27.207031 148.921875 27.851562 147.957031 C 28.5 146.988281 29.167969 146.039062 29.859375 145.109375 C 30.554688 144.175781 31.269531 143.257812 32.007812 142.363281 C 32.746094 141.464844 33.503906 140.585938 34.285156 139.722656 C 35.066406 138.863281 35.867188 138.023438 36.691406 137.203125 C 37.511719 136.378906 38.355469 135.582031 39.21875 134.800781 C 40.078125 134.019531 40.960938 133.261719 41.859375 132.523438 C 42.757812 131.789062 43.675781 131.074219 44.609375 130.382812 C 45.542969 129.691406 46.492188 129.023438 47.460938 128.378906 C 48.425781 127.730469 49.410156 127.109375 50.40625 126.511719 C 51.40625 125.917969 52.417969 125.34375 53.441406 124.796875 C 54.46875 124.25 55.507812 123.726562 56.558594 123.230469 C 57.609375 122.734375 58.671875 122.265625 59.746094 121.820312 C 60.820312 121.375 61.90625 120.957031 63 120.566406 C 64.097656 120.175781 65.199219 119.8125 66.3125 119.472656 C 67.425781 119.136719 68.546875 118.828125 69.675781 118.542969 C 70.804688 118.261719 71.9375 118.007812 73.078125 117.78125 C 74.21875 117.554688 75.367188 117.355469 76.515625 117.1875 C 77.667969 117.015625 78.820312 116.875 79.976562 116.757812 C 81.136719 116.644531 82.296875 116.558594 83.457031 116.503906 C 84.617188 116.445312 85.78125 116.417969 86.945312 116.417969 C 88.105469 116.417969 89.269531 116.445312 90.429688 116.503906 C 91.59375 116.558594 92.753906 116.644531 93.910156 116.757812 C 95.066406 116.875 96.222656 117.015625 97.371094 117.1875 C 98.523438 117.355469 99.667969 117.554688 100.808594 117.78125 C 101.949219 118.007812 103.085938 118.261719 104.210938 118.542969 C 105.339844 118.828125 106.460938 119.136719 107.574219 119.472656 C 108.6875 119.8125 109.792969 120.175781 110.886719 120.566406 C 111.980469 120.957031 113.066406 121.375 114.140625 121.820312 C 115.214844 122.265625 116.277344 122.734375 117.328125 123.230469 C 118.382812 123.726562 119.421875 124.25 120.445312 124.796875 C 121.472656 125.34375 122.484375 125.917969 123.480469 126.511719 C 124.476562 127.109375 125.460938 127.730469 126.429688 128.378906 C 127.394531 129.023438 128.34375 129.691406 129.28125 130.382812 C 130.214844 131.074219 131.128906 131.789062 132.03125 132.523438 C 132.929688 133.261719 133.808594 134.019531 134.671875 134.800781 C 135.53125 135.582031 136.375 136.378906 137.199219 137.203125 C 138.019531 138.023438 138.820312 138.863281 139.601562 139.722656 C 140.382812 140.585938 141.144531 141.464844 141.882812 142.363281 C 142.617188 143.257812 143.335938 144.175781 144.027344 145.109375 C 144.71875 146.039062 145.390625 146.988281 146.035156 147.957031 C 146.683594 148.921875 147.304688 149.902344 147.902344 150.898438 C 148.5 151.894531 149.074219 152.902344 149.621094 153.929688 C 150.167969 154.953125 150.691406 155.988281 151.191406 157.039062 C 151.6875 158.089844 152.15625 159.152344 152.601562 160.222656 C 153.046875 161.296875 153.464844 162.378906 153.859375 163.472656 C 154.25 164.566406 154.613281 165.667969 154.953125 166.78125 C 155.289062 167.890625 155.601562 169.011719 155.882812 170.136719 C 156.164062 171.261719 156.421875 172.394531 156.648438 173.535156 C 156.875 174.675781 157.074219 175.820312 157.242188 176.96875 C 157.414062 178.117188 157.558594 179.269531 157.671875 180.425781 C 157.785156 181.578125 157.871094 182.738281 157.925781 183.898438 C 157.984375 185.058594 158.011719 186.21875 158.011719 187.378906 Z M 158.011719 187.378906 "/>
</g>
</g>
</svg>
