<?xml version="1.0" encoding="UTF-8"?>
<svg xmlns="http://www.w3.org/2000/svg" xmlns:xlink="http://www.w3.org/1999/xlink" width="375pt" height="374.999991pt" viewBox="0 0 375 374.999991" version="1.2">
<defs>
<clipPath id="clip1">
  <path d="M 24.554688 23 L 350.769531 23 L 350.769531 369.464844 L 24.554688 369.464844 Z M 24.554688 23 "/>
</clipPath>
<clipPath id="clip2">
  <path d="M 187 5.714844 L 339 5.714844 L 339 157 L 187 157 Z M 187 5.714844 "/>
</clipPath>
</defs>
<g id="surface1">
<g clip-path="url(#clip1)" clip-rule="nonzero">
<path style=" stroke:none;fill-rule:nonzero;fill:rgb(85.099792%,85.099792%,85.099792%);fill-opacity:1;" d="M 262.933594 171.910156 C 260.789062 171.914062 258.648438 171.839844 256.511719 171.6875 C 254.375 171.539062 252.246094 171.3125 250.121094 171.015625 C 248 170.714844 245.890625 170.339844 243.796875 169.890625 C 241.703125 169.441406 239.625 168.917969 237.566406 168.320312 C 235.507812 167.722656 233.472656 167.054688 231.460938 166.316406 C 229.449219 165.574219 227.46875 164.765625 225.515625 163.886719 C 223.5625 163.003906 221.640625 162.058594 219.753906 161.042969 C 217.867188 160.023438 216.019531 158.945312 214.210938 157.796875 C 212.398438 156.652344 210.632812 155.441406 208.90625 154.167969 C 207.183594 152.898438 205.503906 151.566406 203.875 150.175781 C 202.242188 148.785156 200.664062 147.339844 199.136719 145.839844 C 197.609375 144.335938 196.136719 142.785156 194.714844 141.175781 C 193.296875 139.570312 191.9375 137.917969 190.636719 136.214844 C 189.335938 134.511719 188.097656 132.765625 186.917969 130.976562 C 185.742188 129.1875 184.628906 127.359375 183.578125 125.492188 C 182.53125 123.621094 181.550781 121.71875 180.636719 119.78125 C 179.722656 117.84375 178.878906 115.875 178.105469 113.878906 C 177.332031 111.882812 176.628906 109.859375 175.996094 107.8125 C 175.363281 105.765625 174.804688 103.699219 174.320312 101.609375 C 173.835938 99.523438 173.425781 97.421875 173.089844 95.308594 C 172.75 93.191406 172.492188 91.066406 172.304688 88.933594 C 172.117188 86.800781 172.007812 84.660156 171.972656 82.519531 C 171.9375 80.378906 171.976562 78.238281 172.09375 76.097656 C 172.210938 73.957031 172.402344 71.828125 172.671875 69.699219 C 172.9375 67.574219 173.28125 65.460938 173.695312 63.359375 C 174.113281 61.257812 174.605469 59.175781 175.167969 57.109375 C 175.734375 55.042969 176.371094 53 177.078125 50.976562 C 177.785156 48.953125 178.566406 46.960938 179.417969 44.996094 C 180.265625 43.027344 181.183594 41.09375 182.171875 39.191406 C 183.160156 37.289062 184.210938 35.425781 185.328125 33.597656 C 186.449219 31.773438 187.628906 29.988281 188.875 28.242188 C 190.121094 26.5 191.425781 24.800781 192.789062 23.152344 C 189.777344 24.738281 186.820312 26.421875 183.917969 28.210938 C 181.019531 29.996094 178.183594 31.878906 175.410156 33.859375 C 172.640625 35.839844 169.9375 37.910156 167.304688 40.074219 C 164.675781 42.234375 162.121094 44.484375 159.640625 46.820312 C 157.164062 49.15625 154.765625 51.574219 152.453125 54.070312 C 150.136719 56.570312 147.910156 59.144531 145.769531 61.792969 C 143.628906 64.445312 141.582031 67.164062 139.628906 69.953125 C 137.671875 72.738281 135.8125 75.589844 134.050781 78.507812 C 132.292969 81.421875 130.628906 84.390625 129.070312 87.417969 C 127.511719 90.445312 126.054688 93.523438 124.703125 96.648438 C 123.355469 99.773438 122.109375 102.941406 120.972656 106.152344 C 119.839844 109.363281 118.8125 112.609375 117.898438 115.890625 C 116.980469 119.167969 116.179688 122.476562 115.488281 125.8125 C 114.796875 129.144531 114.21875 132.5 113.757812 135.871094 C 113.292969 139.246094 112.945312 142.632812 112.710938 146.027344 C 112.480469 149.425781 112.359375 152.828125 112.359375 156.234375 L 112.359375 206.40625 L 24.523438 206.40625 L 187.644531 369.464844 L 350.769531 206.40625 L 262.933594 206.40625 Z M 262.933594 171.910156 "/>
</g>
<g clip-path="url(#clip2)" clip-rule="nonzero">
<path style=" stroke:none;fill-rule:nonzero;fill:rgb(85.099792%,85.099792%,85.099792%);fill-opacity:1;" d="M 338.21875 80.972656 C 338.21875 82.207031 338.191406 83.4375 338.128906 84.667969 C 338.070312 85.898438 337.980469 87.125 337.859375 88.351562 C 337.738281 89.578125 337.585938 90.796875 337.40625 92.015625 C 337.226562 93.234375 337.015625 94.449219 336.773438 95.65625 C 336.535156 96.863281 336.265625 98.066406 335.964844 99.261719 C 335.664062 100.457031 335.335938 101.640625 334.980469 102.820312 C 334.621094 104 334.234375 105.167969 333.820312 106.328125 C 333.40625 107.488281 332.960938 108.636719 332.488281 109.773438 C 332.019531 110.914062 331.519531 112.039062 330.992188 113.152344 C 330.464844 114.265625 329.910156 115.363281 329.332031 116.449219 C 328.75 117.535156 328.144531 118.609375 327.507812 119.664062 C 326.875 120.722656 326.21875 121.761719 325.53125 122.785156 C 324.847656 123.808594 324.136719 124.816406 323.40625 125.804688 C 322.671875 126.796875 321.914062 127.765625 321.132812 128.71875 C 320.347656 129.667969 319.546875 130.601562 318.71875 131.515625 C 317.890625 132.425781 317.039062 133.320312 316.167969 134.191406 C 315.296875 135.0625 314.40625 135.910156 313.492188 136.738281 C 312.582031 137.5625 311.648438 138.367188 310.695312 139.148438 C 309.742188 139.929688 308.773438 140.6875 307.78125 141.421875 C 306.792969 142.15625 305.785156 142.863281 304.761719 143.550781 C 303.734375 144.234375 302.695312 144.890625 301.636719 145.527344 C 300.582031 146.160156 299.511719 146.765625 298.421875 147.347656 C 297.335938 147.925781 296.238281 148.480469 295.121094 149.007812 C 294.007812 149.535156 292.882812 150.03125 291.746094 150.503906 C 290.605469 150.976562 289.457031 151.417969 288.296875 151.832031 C 287.136719 152.25 285.96875 152.632812 284.789062 152.992188 C 283.609375 153.351562 282.421875 153.679688 281.226562 153.976562 C 280.03125 154.277344 278.828125 154.546875 277.621094 154.785156 C 276.414062 155.027344 275.199219 155.238281 273.980469 155.417969 C 272.761719 155.597656 271.539062 155.75 270.3125 155.871094 C 269.085938 155.992188 267.859375 156.082031 266.628906 156.140625 C 265.398438 156.203125 264.164062 156.234375 262.933594 156.234375 C 261.699219 156.234375 260.46875 156.203125 259.238281 156.140625 C 258.007812 156.082031 256.78125 155.992188 255.554688 155.871094 C 254.328125 155.75 253.105469 155.597656 251.886719 155.417969 C 250.667969 155.238281 249.453125 155.027344 248.246094 154.785156 C 247.035156 154.546875 245.835938 154.277344 244.640625 153.976562 C 243.445312 153.679688 242.257812 153.351562 241.078125 152.992188 C 239.898438 152.632812 238.730469 152.25 237.570312 151.832031 C 236.410156 151.417969 235.261719 150.976562 234.121094 150.503906 C 232.984375 150.03125 231.859375 149.535156 230.742188 149.007812 C 229.628906 148.480469 228.53125 147.925781 227.441406 147.347656 C 226.355469 146.765625 225.285156 146.160156 224.226562 145.527344 C 223.171875 144.890625 222.128906 144.234375 221.105469 143.550781 C 220.082031 142.863281 219.074219 142.15625 218.085938 141.421875 C 217.09375 140.6875 216.125 139.929688 215.171875 139.148438 C 214.21875 138.367188 213.285156 137.5625 212.375 136.738281 C 211.460938 135.910156 210.566406 135.0625 209.695312 134.191406 C 208.824219 133.320312 207.976562 132.425781 207.148438 131.515625 C 206.320312 130.601562 205.515625 129.667969 204.734375 128.71875 C 203.953125 127.765625 203.195312 126.796875 202.460938 125.804688 C 201.726562 124.816406 201.019531 123.808594 200.335938 122.785156 C 199.648438 121.761719 198.992188 120.722656 198.355469 119.664062 C 197.722656 118.609375 197.117188 117.535156 196.535156 116.449219 C 195.953125 115.363281 195.402344 114.265625 194.875 113.152344 C 194.347656 112.039062 193.847656 110.914062 193.375 109.773438 C 192.90625 108.636719 192.460938 107.488281 192.046875 106.328125 C 191.632812 105.167969 191.246094 104 190.886719 102.820312 C 190.53125 101.640625 190.203125 100.457031 189.902344 99.261719 C 189.601562 98.066406 189.332031 96.863281 189.09375 95.65625 C 188.851562 94.449219 188.640625 93.234375 188.460938 92.015625 C 188.28125 90.796875 188.128906 89.578125 188.007812 88.351562 C 187.886719 87.125 187.796875 85.898438 187.738281 84.667969 C 187.675781 83.4375 187.644531 82.207031 187.644531 80.972656 C 187.644531 79.742188 187.675781 78.511719 187.738281 77.28125 C 187.796875 76.050781 187.886719 74.824219 188.007812 73.597656 C 188.128906 72.371094 188.28125 71.148438 188.460938 69.929688 C 188.640625 68.714844 188.851562 67.5 189.09375 66.292969 C 189.332031 65.082031 189.601562 63.882812 189.902344 62.6875 C 190.203125 61.492188 190.53125 60.304688 190.886719 59.128906 C 191.246094 57.949219 191.632812 56.78125 192.046875 55.621094 C 192.460938 54.460938 192.90625 53.3125 193.375 52.175781 C 193.847656 51.035156 194.347656 49.910156 194.875 48.796875 C 195.402344 47.683594 195.953125 46.582031 196.535156 45.496094 C 197.117188 44.410156 197.722656 43.339844 198.355469 42.285156 C 198.992188 41.226562 199.648438 40.1875 200.335938 39.164062 C 201.019531 38.136719 201.726562 37.132812 202.460938 36.144531 C 203.195312 35.152344 203.953125 34.183594 204.734375 33.230469 C 205.515625 32.277344 206.320312 31.347656 207.148438 30.433594 C 207.976562 29.519531 208.824219 28.628906 209.695312 27.757812 C 210.566406 26.886719 211.460938 26.039062 212.375 25.210938 C 213.285156 24.382812 214.21875 23.578125 215.171875 22.796875 C 216.125 22.015625 217.09375 21.257812 218.085938 20.527344 C 219.074219 19.792969 220.082031 19.082031 221.105469 18.398438 C 222.128906 17.714844 223.171875 17.054688 224.226562 16.421875 C 225.285156 15.789062 226.355469 15.183594 227.441406 14.601562 C 228.53125 14.019531 229.628906 13.46875 230.742188 12.941406 C 231.859375 12.414062 232.984375 11.914062 234.121094 11.445312 C 235.261719 10.972656 236.410156 10.53125 237.570312 10.113281 C 238.730469 9.699219 239.898438 9.3125 241.078125 8.957031 C 242.257812 8.597656 243.445312 8.269531 244.640625 7.972656 C 245.835938 7.671875 247.035156 7.402344 248.246094 7.160156 C 249.453125 6.921875 250.667969 6.710938 251.886719 6.53125 C 253.105469 6.347656 254.328125 6.199219 255.554688 6.078125 C 256.78125 5.957031 258.007812 5.867188 259.238281 5.804688 C 260.46875 5.746094 261.699219 5.714844 262.933594 5.714844 C 264.164062 5.714844 265.398438 5.746094 266.628906 5.804688 C 267.859375 5.867188 269.085938 5.957031 270.3125 6.078125 C 271.539062 6.199219 272.761719 6.347656 273.980469 6.53125 C 275.199219 6.710938 276.414062 6.921875 277.621094 7.160156 C 278.828125 7.402344 280.03125 7.671875 281.226562 7.972656 C 282.421875 8.269531 283.609375 8.597656 284.789062 8.957031 C 285.96875 9.3125 287.136719 9.699219 288.296875 10.113281 C 289.457031 10.53125 290.605469 10.972656 291.746094 11.445312 C 292.882812 11.914062 294.007812 12.414062 295.121094 12.941406 C 296.238281 13.46875 297.335938 14.019531 298.421875 14.601562 C 299.511719 15.183594 300.582031 15.789062 301.636719 16.421875 C 302.695312 17.054688 303.734375 17.714844 304.761719 18.398438 C 305.785156 19.082031 306.792969 19.792969 307.78125 20.527344 C 308.773438 21.257812 309.742188 22.015625 310.695312 22.796875 C 311.648438 23.578125 312.582031 24.382812 313.492188 25.210938 C 314.40625 26.039062 315.296875 26.886719 316.167969 27.757812 C 317.039062 28.628906 317.890625 29.519531 318.71875 30.433594 C 319.546875 31.347656 320.347656 32.277344 321.132812 33.230469 C 321.914062 34.183594 322.671875 35.152344 323.40625 36.144531 C 324.136719 37.132812 324.847656 38.136719 325.53125 39.164062 C 326.21875 40.1875 326.875 41.226562 327.507812 42.285156 C 328.144531 43.339844 328.75 44.410156 329.332031 45.496094 C 329.910156 46.582031 330.464844 47.683594 330.992188 48.796875 C 331.519531 49.910156 332.019531 51.035156 332.488281 52.175781 C 332.960938 53.3125 333.40625 54.460938 333.820312 55.621094 C 334.234375 56.78125 334.621094 57.949219 334.980469 59.128906 C 335.335938 60.304688 335.664062 61.492188 335.964844 62.6875 C 336.265625 63.882812 336.535156 65.082031 336.773438 66.292969 C 337.015625 67.5 337.226562 68.714844 337.40625 69.929688 C 337.585938 71.148438 337.738281 72.371094 337.859375 73.597656 C 337.980469 74.824219 338.070312 76.050781 338.128906 77.28125 C 338.191406 78.511719 338.21875 79.742188 338.21875 80.972656 Z M 338.21875 80.972656 "/>
</g>
</g>
</svg>
