<svg xmlns="http://www.w3.org/2000/svg" width="375" viewBox="0 0 375 375" height="375" version="1.0"><defs><clipPath id="a"><path d="M 46.890625 46.890625 L 328.140625 46.890625 L 328.140625 328.140625 L 46.890625 328.140625 Z M 46.890625 46.890625"/></clipPath></defs><g clip-path="url(#a)"><path fill="#563D7C" d="M 46.890625 291.875 C 46.890625 311.902344 63.128906 328.140625 83.15625 328.140625 L 291.875 328.140625 C 311.902344 328.140625 328.140625 311.902344 328.140625 291.875 L 328.140625 83.15625 C 328.140625 63.125 311.902344 46.890625 291.875 46.890625 L 83.15625 46.890625 C 63.125 46.890625 46.890625 63.128906 46.890625 83.15625 Z M 46.890625 291.875"/></g><path fill="#FFF" d="M 163.523438 171.300781 L 163.523438 131.46875 L 198.578125 131.46875 C 201.917969 131.46875 205.136719 131.746094 208.238281 132.304688 C 211.335938 132.859375 214.082031 133.855469 216.464844 135.285156 C 218.847656 136.71875 220.761719 138.703125 222.1875 141.246094 C 223.617188 143.792969 224.332031 147.050781 224.332031 151.027344 C 224.332031 158.183594 222.1875 163.347656 217.894531 166.53125 C 213.609375 169.707031 208.117188 171.300781 201.4375 171.300781 Z M 126.074219 102.371094 L 126.074219 272.660156 L 208.597656 272.660156 C 216.222656 272.660156 223.660156 271.703125 230.890625 269.792969 C 238.128906 267.890625 244.570312 264.949219 250.214844 260.972656 C 255.863281 256.992188 260.34375 251.875 263.683594 245.589844 C 267.023438 239.304688 268.695312 231.878906 268.695312 223.289062 C 268.695312 212.640625 266.113281 203.535156 260.949219 195.988281 C 255.773438 188.429688 247.953125 183.144531 237.449219 180.121094 C 245.085938 176.464844 250.851562 171.773438 254.742188 166.050781 C 258.640625 160.324219 260.585938 153.171875 260.585938 144.585938 C 260.585938 136.636719 259.277344 129.960938 256.652344 124.554688 C 254.027344 119.144531 250.335938 114.816406 245.566406 111.554688 C 240.789062 108.296875 235.066406 105.949219 228.398438 104.519531 C 221.71875 103.085938 214.324219 102.371094 206.214844 102.371094 Z M 163.523438 243.570312 L 163.523438 196.820312 L 204.304688 196.820312 C 212.410156 196.820312 218.925781 198.691406 223.859375 202.425781 C 228.792969 206.160156 231.253906 212.402344 231.253906 221.144531 C 231.253906 225.59375 230.496094 229.253906 228.988281 232.121094 C 227.472656 234.976562 225.453125 237.242188 222.902344 238.910156 C 220.367188 240.582031 217.421875 241.777344 214.082031 242.492188 C 210.742188 243.207031 207.246094 243.570312 203.589844 243.570312 Z M 163.523438 243.570312"/></svg>