<?xml version="1.0" encoding="UTF-8"?>
<svg xmlns="http://www.w3.org/2000/svg" xmlns:xlink="http://www.w3.org/1999/xlink" width="375pt" height="374.999991pt" viewBox="0 0 375 374.999991" version="1.2">
<defs>
<clipPath id="clip1">
  <path d="M 18.683594 18.683594 L 356.054688 18.683594 L 356.054688 356.054688 L 18.683594 356.054688 Z M 18.683594 18.683594 "/>
</clipPath>
</defs>
<g id="surface1">
<g clip-path="url(#clip1)" clip-rule="nonzero">
<path style=" stroke:none;fill-rule:evenodd;fill:rgb(0%,0%,0%);fill-opacity:1;" d="M 187.371094 18.683594 C 280.148438 18.683594 356.054688 94.589844 356.054688 187.371094 C 356.054688 280.148438 280.148438 356.054688 187.371094 356.054688 C 94.589844 356.054688 18.683594 280.148438 18.683594 187.371094 C 18.683594 94.589844 94.589844 18.683594 187.371094 18.683594 "/>
</g>
<path style=" stroke:none;fill-rule:nonzero;fill:rgb(100%,100%,99.609375%);fill-opacity:1;" d="M 264.550781 130.742188 L 264.550781 279.859375 C 264.550781 281.832031 263.746094 283.625 262.445312 284.921875 C 261.148438 286.21875 259.355469 287.023438 257.382812 287.023438 L 117.355469 287.023438 C 115.382812 287.023438 113.589844 286.21875 112.292969 284.921875 C 110.992188 283.625 110.1875 281.832031 110.1875 279.859375 L 110.1875 94.878906 C 110.1875 92.90625 110.992188 91.113281 112.292969 89.816406 C 113.589844 88.523438 115.382812 87.714844 117.355469 87.714844 L 117.355469 87.726562 L 221.460938 87.726562 C 221.550781 87.71875 221.640625 87.714844 221.734375 87.714844 C 222.679688 87.714844 223.53125 88.136719 224.101562 88.804688 L 263.472656 128.386719 C 264.132812 128.957031 264.550781 129.800781 264.550781 130.742188 Z M 258.324219 279.859375 L 258.324219 133.855469 L 221.734375 133.855469 C 220.015625 133.855469 218.621094 132.460938 218.621094 130.742188 L 218.621094 93.933594 L 117.355469 93.933594 L 117.355469 93.941406 C 117.101562 93.941406 116.867188 94.050781 116.695312 94.222656 C 116.523438 94.394531 116.417969 94.628906 116.417969 94.878906 L 116.417969 279.859375 C 116.417969 280.109375 116.523438 280.347656 116.695312 280.515625 C 116.867188 280.6875 117.101562 280.796875 117.355469 280.796875 L 257.382812 280.796875 C 257.640625 280.796875 257.871094 280.6875 258.042969 280.515625 C 258.214844 280.347656 258.324219 280.109375 258.324219 279.859375 "/>
<path style=" stroke:none;fill-rule:evenodd;fill:rgb(100%,100%,99.609375%);fill-opacity:1;" d="M 243.6875 205.292969 L 243.6875 169.449219 C 243.6875 167.402344 242.851562 165.542969 241.507812 164.199219 C 240.160156 162.855469 238.304688 162.015625 236.257812 162.015625 L 138.480469 162.015625 C 136.433594 162.015625 134.578125 162.855469 133.230469 164.199219 C 131.886719 165.542969 131.050781 167.402344 131.050781 169.449219 L 131.050781 205.292969 C 131.050781 207.335938 131.886719 209.195312 133.230469 210.539062 C 134.578125 211.886719 136.433594 212.722656 138.480469 212.722656 L 236.257812 212.722656 C 238.304688 212.722656 240.160156 211.886719 241.507812 210.539062 C 242.851562 209.195312 243.6875 207.335938 243.6875 205.292969 Z M 207.207031 184.15625 C 209.714844 184.695312 211.511719 185.246094 212.597656 185.800781 C 213.683594 186.351562 214.472656 187.035156 214.964844 187.855469 C 215.460938 188.675781 215.710938 189.589844 215.710938 190.609375 C 215.710938 191.796875 215.378906 192.894531 214.722656 193.898438 C 214.0625 194.90625 213.140625 195.667969 211.957031 196.1875 C 210.777344 196.707031 209.28125 196.96875 207.484375 196.96875 C 204.324219 196.96875 202.136719 196.363281 200.921875 195.140625 C 199.703125 193.925781 199.015625 192.382812 198.855469 190.503906 L 204.316406 190.164062 C 204.433594 191.050781 204.675781 191.722656 205.039062 192.191406 C 205.628906 192.945312 206.476562 193.316406 207.574219 193.316406 C 208.390625 193.316406 209.023438 193.125 209.46875 192.742188 C 209.910156 192.355469 210.132812 191.910156 210.132812 191.40625 C 210.132812 190.921875 209.921875 190.492188 209.5 190.109375 C 209.074219 189.730469 208.097656 189.371094 206.558594 189.035156 C 204.042969 188.46875 202.246094 187.71875 201.171875 186.78125 C 200.089844 185.84375 199.550781 184.648438 199.550781 183.195312 C 199.550781 182.238281 199.828125 181.335938 200.382812 180.488281 C 200.9375 179.640625 201.765625 178.972656 202.878906 178.484375 C 203.988281 178 205.511719 177.757812 207.445312 177.757812 C 209.820312 177.757812 211.632812 178.199219 212.878906 179.082031 C 214.125 179.964844 214.863281 181.371094 215.101562 183.296875 L 209.691406 183.609375 C 209.546875 182.777344 209.246094 182.164062 208.78125 181.785156 C 208.324219 181.410156 207.6875 181.21875 206.878906 181.21875 C 206.207031 181.21875 205.707031 181.355469 205.371094 181.640625 C 205.03125 181.925781 204.863281 182.269531 204.863281 182.675781 C 204.863281 182.96875 205.003906 183.234375 205.277344 183.472656 C 205.550781 183.71875 206.191406 183.945312 207.207031 184.15625 Z M 193.855469 185.800781 C 194.941406 186.351562 195.734375 187.035156 196.226562 187.855469 C 196.71875 188.675781 196.96875 189.589844 196.96875 190.609375 C 196.96875 191.796875 196.636719 192.894531 195.980469 193.898438 C 195.320312 194.90625 194.398438 195.667969 193.214844 196.1875 C 192.035156 196.707031 190.542969 196.96875 188.742188 196.96875 C 185.585938 196.96875 183.398438 196.363281 182.179688 195.140625 C 180.960938 193.925781 180.273438 192.382812 180.113281 190.503906 L 185.578125 190.164062 C 185.691406 191.050781 185.933594 191.722656 186.296875 192.191406 C 186.886719 192.945312 187.734375 193.316406 188.832031 193.316406 C 189.648438 193.316406 190.285156 193.125 190.726562 192.742188 C 191.167969 192.355469 191.390625 191.910156 191.390625 191.40625 C 191.390625 190.921875 191.179688 190.492188 190.757812 190.109375 C 190.335938 189.730469 189.355469 189.371094 187.816406 189.035156 C 185.300781 188.46875 183.503906 187.71875 182.429688 186.78125 C 181.351562 185.84375 180.808594 184.648438 180.808594 183.195312 C 180.808594 182.238281 181.085938 181.335938 181.640625 180.488281 C 182.195312 179.640625 183.023438 178.972656 184.136719 178.484375 C 185.246094 178 186.769531 177.757812 188.703125 177.757812 C 191.078125 177.757812 192.890625 178.199219 194.136719 179.082031 C 195.382812 179.964844 196.121094 181.371094 196.359375 183.296875 L 190.949219 183.609375 C 190.804688 182.777344 190.503906 182.164062 190.039062 181.785156 C 189.582031 181.410156 188.945312 181.21875 188.136719 181.21875 C 187.464844 181.21875 186.964844 181.355469 186.628906 181.640625 C 186.289062 181.925781 186.121094 182.269531 186.121094 182.675781 C 186.121094 182.96875 186.261719 183.234375 186.539062 183.472656 C 186.808594 183.71875 187.449219 183.945312 188.464844 184.15625 C 190.972656 184.695312 192.769531 185.246094 193.855469 185.800781 Z M 173.296875 189.0625 L 178.328125 190.582031 C 177.988281 191.992188 177.457031 193.167969 176.730469 194.117188 C 176.003906 195.0625 175.101562 195.777344 174.023438 196.257812 C 172.945312 196.742188 171.574219 196.980469 169.914062 196.980469 C 167.894531 196.980469 166.242188 196.683594 164.964844 196.101562 C 163.6875 195.511719 162.578125 194.480469 161.648438 193 C 160.722656 191.519531 160.257812 189.632812 160.257812 187.328125 C 160.257812 184.25 161.074219 181.882812 162.707031 180.238281 C 164.34375 178.585938 166.65625 177.757812 169.644531 177.757812 C 171.984375 177.757812 173.824219 178.230469 175.167969 179.175781 C 176.503906 180.125 177.5 181.578125 178.152344 183.535156 L 173.078125 184.664062 C 172.902344 184.101562 172.714844 183.683594 172.523438 183.421875 C 172.203125 182.984375 171.808594 182.648438 171.347656 182.410156 C 170.878906 182.167969 170.359375 182.054688 169.785156 182.054688 C 168.488281 182.054688 167.488281 182.578125 166.796875 183.621094 C 166.273438 184.402344 166.007812 185.621094 166.007812 187.285156 C 166.007812 189.351562 166.324219 190.757812 166.945312 191.527344 C 167.574219 192.292969 168.453125 192.671875 169.582031 192.671875 C 170.679688 192.671875 171.511719 192.363281 172.074219 191.746094 C 172.632812 191.132812 173.042969 190.238281 173.296875 189.0625 "/>
</g>
</svg>
