<?xml version="1.0" encoding="UTF-8"?>
<svg xmlns="http://www.w3.org/2000/svg" xmlns:xlink="http://www.w3.org/1999/xlink" width="375pt" height="374.999991pt" viewBox="0 0 375 374.999991" version="1.2">
<defs>
<clipPath id="clip1">
  <path d="M 18.75 18.75 L 356.25 18.75 L 356.25 356.25 L 18.75 356.25 Z M 18.75 18.75 "/>
</clipPath>
</defs>
<g id="surface1">
<g clip-path="url(#clip1)" clip-rule="nonzero">
<path style=" stroke:none;fill-rule:evenodd;fill:rgb(0%,0%,0%);fill-opacity:1;" d="M 187.5 18.75 C 280.3125 18.75 356.25 94.6875 356.25 187.5 C 356.25 280.3125 280.3125 356.25 187.5 356.25 C 94.6875 356.25 18.75 280.3125 18.75 187.5 C 18.75 94.6875 94.6875 18.75 187.5 18.75 "/>
</g>
<path style=" stroke:none;fill-rule:nonzero;fill:rgb(100%,100%,99.609375%);fill-opacity:1;" d="M 264.710938 130.851562 L 264.710938 280.023438 C 264.710938 282 263.90625 283.789062 262.605469 285.089844 C 261.308594 286.386719 259.515625 287.191406 257.542969 287.191406 L 117.457031 287.191406 C 115.484375 287.191406 113.691406 286.386719 112.394531 285.089844 C 111.09375 283.789062 110.289062 282 110.289062 280.023438 L 110.289062 94.976562 C 110.289062 93 111.09375 91.210938 112.394531 89.910156 C 113.691406 88.613281 115.484375 87.808594 117.457031 87.808594 L 117.457031 87.820312 L 221.605469 87.820312 C 221.695312 87.8125 221.785156 87.808594 221.878906 87.808594 C 222.824219 87.808594 223.675781 88.230469 224.246094 88.898438 L 263.632812 128.496094 C 264.292969 129.066406 264.710938 129.910156 264.710938 130.851562 Z M 258.480469 280.023438 L 258.480469 133.96875 L 221.878906 133.96875 C 220.160156 133.96875 218.761719 132.574219 218.761719 130.851562 L 218.761719 94.027344 L 117.457031 94.027344 L 117.457031 94.039062 C 117.203125 94.039062 116.96875 94.144531 116.796875 94.316406 C 116.628906 94.488281 116.519531 94.722656 116.519531 94.976562 L 116.519531 280.023438 C 116.519531 280.277344 116.628906 280.511719 116.796875 280.683594 C 116.96875 280.855469 117.203125 280.960938 117.457031 280.960938 L 257.542969 280.960938 C 257.796875 280.960938 258.03125 280.855469 258.203125 280.683594 C 258.371094 280.511719 258.480469 280.277344 258.480469 280.023438 "/>
<path style=" stroke:none;fill-rule:evenodd;fill:rgb(100%,100%,99.609375%);fill-opacity:1;" d="M 202.347656 178.207031 L 209.875 178.207031 L 209.875 196.792969 L 205.183594 196.792969 L 205.183594 182.621094 L 201.546875 196.792969 L 197.300781 196.792969 L 193.671875 182.621094 L 193.671875 196.792969 L 188.96875 196.792969 L 188.96875 178.207031 L 196.527344 178.207031 L 199.441406 189.511719 Z M 213.535156 196.792969 L 213.535156 178.207031 L 219.28125 178.207031 L 219.28125 192.214844 L 228.242188 192.214844 L 228.242188 196.792969 Z M 243.839844 205.429688 L 243.839844 169.570312 C 243.839844 167.523438 243.003906 165.667969 241.660156 164.320312 C 240.3125 162.976562 238.457031 162.136719 236.40625 162.136719 L 138.59375 162.136719 C 136.542969 162.136719 134.6875 162.976562 133.339844 164.320312 C 131.996094 165.667969 131.160156 167.523438 131.160156 169.570312 L 131.160156 205.429688 C 131.160156 207.476562 131.996094 209.332031 133.339844 210.679688 C 134.6875 212.023438 136.542969 212.863281 138.59375 212.863281 L 236.40625 212.863281 C 238.457031 212.863281 240.3125 212.023438 241.660156 210.679688 C 243.003906 209.332031 243.839844 207.476562 243.839844 205.429688 Z M 148.683594 178.207031 L 154.425781 178.207031 L 154.425781 184.710938 L 160.703125 184.710938 L 160.703125 178.207031 L 166.472656 178.207031 L 166.472656 196.792969 L 160.703125 196.792969 L 160.703125 189.277344 L 154.425781 189.277344 L 154.425781 196.792969 L 148.683594 196.792969 Z M 168.980469 178.207031 L 186.433594 178.207031 L 186.433594 182.800781 L 180.578125 182.800781 L 180.578125 196.792969 L 174.835938 196.792969 L 174.835938 182.800781 L 168.980469 182.800781 L 168.980469 178.207031 "/>
</g>
</svg>
