<?xml version="1.0" encoding="UTF-8"?>
<svg xmlns="http://www.w3.org/2000/svg" xmlns:xlink="http://www.w3.org/1999/xlink" width="375pt" height="374.999991pt" viewBox="0 0 375 374.999991" version="1.2">
<defs>
<clipPath id="clip1">
  <path d="M 18.683594 18.683594 L 356.054688 18.683594 L 356.054688 356.054688 L 18.683594 356.054688 Z M 18.683594 18.683594 "/>
</clipPath>
</defs>
<g id="surface1">
<g clip-path="url(#clip1)" clip-rule="nonzero">
<path style=" stroke:none;fill-rule:evenodd;fill:rgb(0%,0%,0%);fill-opacity:1;" d="M 187.371094 18.683594 C 280.144531 18.683594 356.054688 94.59375 356.054688 187.371094 C 356.054688 280.144531 280.144531 356.054688 187.371094 356.054688 C 94.59375 356.054688 18.683594 280.144531 18.683594 187.371094 C 18.683594 94.59375 94.59375 18.683594 187.371094 18.683594 "/>
</g>
<path style=" stroke:none;fill-rule:nonzero;fill:rgb(100%,100%,100%);fill-opacity:1;" d="M 114.226562 86.15625 L 217.648438 86.15625 C 218.550781 86.15625 219.363281 86.527344 219.949219 87.121094 L 269.546875 136.71875 C 270.179688 137.351562 270.496094 138.179688 270.496094 139.007812 L 270.496094 278.59375 C 270.496094 281.34375 269.375 283.839844 267.566406 285.648438 C 265.757812 287.457031 263.261719 288.582031 260.511719 288.582031 L 114.226562 288.582031 C 111.476562 288.582031 108.980469 287.457031 107.171875 285.648438 C 105.363281 283.839844 104.242188 281.34375 104.242188 278.59375 L 104.242188 96.144531 C 104.242188 93.394531 105.363281 90.898438 107.171875 89.089844 C 108.980469 87.28125 111.476562 86.15625 114.226562 86.15625 Z M 216.308594 92.636719 L 114.226562 92.636719 C 113.265625 92.636719 112.386719 93.03125 111.75 93.667969 C 111.113281 94.308594 110.71875 95.183594 110.71875 96.144531 L 110.71875 278.59375 C 110.71875 279.554688 111.113281 280.433594 111.75 281.070312 C 112.386719 281.707031 113.265625 282.101562 114.226562 282.101562 L 260.511719 282.101562 C 261.472656 282.101562 262.347656 281.707031 262.984375 281.070312 C 263.625 280.433594 264.019531 279.554688 264.019531 278.59375 L 264.019531 140.347656 L 216.308594 92.636719 "/>
<path style=" stroke:none;fill-rule:nonzero;fill:rgb(100%,100%,100%);fill-opacity:1;" d="M 249.757812 288.582031 L 124.910156 288.582031 C 123.351562 288.582031 122.046875 287.476562 121.742188 286.003906 C 121.632812 285.609375 121.550781 285.222656 121.492188 284.839844 C 121.417969 284.347656 121.378906 283.855469 121.378906 283.371094 L 121.378906 246.667969 C 121.378906 243.917969 122.503906 241.421875 124.308594 239.609375 C 126.117188 237.804688 128.613281 236.679688 131.363281 236.679688 L 243.371094 236.679688 C 246.121094 236.679688 248.617188 237.804688 250.429688 239.609375 C 252.238281 241.421875 253.359375 243.917969 253.359375 246.667969 L 253.359375 283.371094 C 253.359375 283.855469 253.320312 284.347656 253.246094 284.839844 C 253.175781 285.316406 253.0625 285.800781 252.914062 286.289062 L 252.917969 286.292969 C 252.488281 287.707031 251.167969 288.613281 249.757812 288.582031 Z M 127.855469 282.101562 L 246.882812 282.101562 L 246.882812 246.667969 C 246.882812 245.707031 246.484375 244.828125 245.847656 244.191406 C 245.210938 243.554688 244.332031 243.160156 243.371094 243.160156 L 131.363281 243.160156 C 130.402344 243.160156 129.527344 243.554688 128.890625 244.191406 C 128.253906 244.828125 127.855469 245.707031 127.855469 246.667969 L 127.855469 282.101562 "/>
<path style=" stroke:none;fill-rule:nonzero;fill:rgb(100%,100%,100%);fill-opacity:1;" d="M 177.824219 249.285156 L 183.195312 249.285156 L 183.195312 266.171875 C 183.195312 268.375 182.996094 270.078125 182.613281 271.265625 C 182.089844 272.816406 181.148438 274.0625 179.773438 275.003906 C 178.402344 275.945312 176.597656 276.410156 174.351562 276.410156 C 171.71875 276.410156 169.695312 275.679688 168.269531 274.199219 C 166.855469 272.730469 166.136719 270.566406 166.128906 267.714844 L 171.203125 267.132812 C 171.265625 268.660156 171.488281 269.742188 171.875 270.375 C 172.457031 271.332031 173.347656 271.8125 174.535156 271.8125 C 175.730469 271.8125 176.582031 271.46875 177.078125 270.777344 C 177.574219 270.09375 177.824219 268.675781 177.824219 266.511719 Z M 187.5625 267.28125 L 192.804688 266.765625 C 193.113281 268.53125 193.753906 269.824219 194.722656 270.648438 C 195.683594 271.46875 196.984375 271.882812 198.621094 271.882812 C 200.355469 271.882812 201.664062 271.515625 202.539062 270.777344 C 203.421875 270.046875 203.863281 269.1875 203.863281 268.207031 C 203.863281 267.574219 203.679688 267.039062 203.304688 266.597656 C 202.9375 266.152344 202.292969 265.765625 201.367188 265.445312 C 200.738281 265.21875 199.296875 264.835938 197.058594 264.277344 C 194.167969 263.5625 192.144531 262.679688 190.984375 261.636719 C 189.34375 260.171875 188.523438 258.382812 188.523438 256.269531 C 188.523438 254.910156 188.910156 253.644531 189.679688 252.457031 C 190.449219 251.277344 191.558594 250.378906 193.007812 249.757812 C 194.460938 249.140625 196.207031 248.832031 198.257812 248.832031 C 201.609375 248.832031 204.125 249.5625 205.820312 251.03125 C 207.507812 252.503906 208.398438 254.457031 208.484375 256.914062 L 203.101562 257.148438 C 202.871094 255.773438 202.375 254.785156 201.617188 254.191406 C 200.859375 253.589844 199.722656 253.289062 198.207031 253.289062 C 196.640625 253.289062 195.410156 253.605469 194.53125 254.253906 C 193.957031 254.664062 193.671875 255.214844 193.671875 255.90625 C 193.671875 256.539062 193.9375 257.078125 194.476562 257.523438 C 195.152344 258.097656 196.804688 258.695312 199.421875 259.308594 C 202.042969 259.929688 203.984375 260.570312 205.238281 261.230469 C 206.492188 261.890625 207.472656 262.792969 208.1875 263.941406 C 208.894531 265.089844 209.246094 266.507812 209.246094 268.1875 C 209.246094 269.714844 208.828125 271.152344 207.972656 272.480469 C 207.125 273.816406 205.925781 274.808594 204.375 275.453125 C 202.820312 276.105469 200.882812 276.429688 198.566406 276.429688 C 195.191406 276.429688 192.605469 275.65625 190.796875 274.09375 C 188.992188 272.535156 187.910156 270.265625 187.5625 267.28125 "/>
<path style=" stroke:none;fill-rule:nonzero;fill:rgb(100%,100%,100%);fill-opacity:1;" d="M 266.964844 142.234375 L 217.773438 142.089844 L 217.773438 138.863281 L 217.761719 142.101562 C 215.972656 142.097656 214.527344 140.640625 214.535156 138.855469 C 214.535156 138.765625 214.539062 138.675781 214.546875 138.585938 L 214.421875 89.402344 L 214.410156 89.402344 C 214.402344 87.617188 215.851562 86.164062 217.640625 86.15625 C 218.546875 86.15625 219.363281 86.523438 219.957031 87.125 L 269.546875 136.71875 C 270.8125 137.984375 270.8125 140.03125 269.546875 141.296875 C 268.839844 142.003906 267.890625 142.316406 266.964844 142.234375 Z M 220.992188 135.644531 L 259.429688 135.757812 L 220.894531 97.222656 Z M 220.992188 135.644531 "/>
</g>
</svg>
