<?xml version="1.0" encoding="UTF-8"?>
<svg xmlns="http://www.w3.org/2000/svg" xmlns:xlink="http://www.w3.org/1999/xlink" width="375pt" height="374.999991pt" viewBox="0 0 375 374.999991" version="1.2">
<defs>
<clipPath id="clip1">
  <path d="M 20 18.683594 L 355 18.683594 L 355 356.054688 L 20 356.054688 Z M 20 18.683594 "/>
</clipPath>
</defs>
<g id="surface1">
<g clip-path="url(#clip1)" clip-rule="nonzero">
<path style=" stroke:none;fill-rule:nonzero;fill:rgb(0%,0%,0%);fill-opacity:1;" d="M 200.019531 270.308594 C 191.585938 270.308594 185.964844 266.089844 185.964844 263.277344 C 185.964844 259.0625 181.746094 256.25 178.933594 257.65625 C 174.71875 257.65625 171.90625 261.871094 173.3125 264.683594 C 174.71875 275.929688 185.964844 284.363281 201.425781 284.363281 C 216.890625 284.363281 229.539062 274.523438 229.539062 263.277344 C 229.539062 252.03125 221.105469 245.003906 204.238281 242.191406 L 202.832031 242.191406 C 190.179688 240.785156 188.773438 236.570312 188.773438 235.164062 C 188.773438 232.351562 194.398438 228.136719 202.832031 228.136719 C 211.265625 228.136719 216.890625 232.351562 216.890625 235.164062 C 216.890625 239.382812 221.105469 242.191406 223.917969 242.191406 C 228.136719 242.191406 230.945312 237.976562 229.539062 235.164062 C 228.136719 223.917969 216.890625 215.484375 201.425781 215.484375 C 185.964844 215.484375 173.3125 225.324219 173.3125 236.570312 C 173.3125 247.816406 181.746094 254.84375 198.613281 257.65625 L 200.019531 250.628906 L 201.425781 257.65625 C 212.671875 259.0625 215.484375 261.871094 215.484375 264.683594 C 214.078125 266.089844 208.453125 270.308594 200.019531 270.308594 Z M 263.277344 298.421875 C 254.84375 298.421875 246.410156 295.609375 239.378906 288.582031 C 236.570312 285.769531 232.351562 285.769531 229.539062 288.582031 C 221.105469 295.609375 211.265625 298.421875 200.019531 298.421875 C 187.367188 298.421875 174.71875 294.203125 167.6875 285.769531 C 166.28125 284.363281 163.472656 282.957031 162.066406 282.957031 C 159.253906 282.957031 157.847656 284.363281 156.441406 287.175781 L 142.386719 315.289062 C 136.761719 325.128906 124.113281 329.347656 114.273438 325.128906 C 107.242188 320.914062 103.027344 313.882812 103.027344 306.855469 C 103.027344 302.640625 100.214844 299.828125 95.996094 299.828125 C 90.375 299.828125 84.753906 297.015625 80.535156 292.796875 C 77.722656 289.988281 72.101562 289.988281 69.289062 292.796875 C 65.074219 297.015625 59.449219 299.828125 53.828125 299.828125 C 42.582031 299.828125 32.742188 289.988281 32.742188 278.742188 L 32.742188 222.511719 C 32.742188 214.078125 38.363281 205.644531 46.796875 202.832031 C 55.230469 200.019531 63.667969 202.832031 69.289062 208.457031 C 70.695312 209.863281 72.101562 211.265625 74.914062 211.265625 C 76.316406 211.265625 79.128906 209.863281 80.535156 208.457031 C 86.15625 202.832031 94.59375 200.019531 103.027344 202.832031 C 111.460938 205.644531 117.082031 214.078125 117.082031 222.511719 C 117.082031 226.730469 119.894531 229.542969 124.113281 229.542969 C 128.328125 229.542969 131.140625 230.945312 135.359375 232.351562 C 136.761719 232.351562 138.167969 233.757812 139.574219 233.757812 C 140.980469 233.757812 142.386719 233.757812 143.792969 232.351562 C 148.007812 229.542969 152.226562 229.542969 156.441406 229.542969 C 159.253906 229.542969 162.066406 228.136719 163.472656 225.324219 C 169.09375 211.265625 184.558594 201.425781 202.832031 201.425781 C 214.078125 201.425781 223.917969 205.644531 232.351562 211.265625 C 235.164062 214.078125 239.378906 214.078125 242.191406 211.265625 C 249.21875 204.238281 257.65625 201.425781 266.089844 201.425781 C 270.304688 201.425781 273.117188 198.617188 273.117188 194.398438 L 273.117188 25.714844 C 273.117188 21.496094 270.304688 18.683594 266.089844 18.683594 L 111.460938 18.683594 C 111.460938 18.683594 111.460938 18.683594 110.054688 18.683594 C 110.054688 18.683594 110.054688 18.683594 108.648438 18.683594 C 107.242188 18.683594 105.835938 20.089844 105.835938 20.089844 L 21.496094 104.433594 C 20.089844 105.839844 20.089844 105.839844 20.089844 107.246094 C 20.089844 107.246094 20.089844 107.246094 20.089844 108.652344 C 20.089844 108.652344 20.089844 108.652344 20.089844 110.054688 L 20.089844 349.027344 C 20.089844 353.246094 22.898438 356.054688 27.117188 356.054688 L 266.089844 356.054688 C 270.304688 356.054688 273.117188 353.246094 273.117188 349.027344 L 273.117188 306.855469 C 270.304688 301.234375 267.496094 298.421875 263.277344 298.421875 Z M 101.621094 41.175781 L 101.621094 101.621094 L 41.175781 101.621094 Z M 347.621094 270.308594 L 326.535156 270.308594 L 326.535156 221.105469 C 326.535156 216.890625 323.722656 214.078125 319.507812 214.078125 C 315.289062 214.078125 312.476562 216.890625 312.476562 221.105469 L 312.476562 277.335938 C 312.476562 281.550781 315.289062 284.363281 319.507812 284.363281 L 347.621094 284.363281 C 351.835938 284.363281 354.648438 281.550781 354.648438 277.335938 C 354.648438 273.117188 351.835938 270.308594 347.621094 270.308594 Z M 297.015625 271.710938 C 298.421875 268.902344 299.828125 266.089844 299.828125 263.277344 L 299.828125 235.164062 C 299.828125 223.917969 289.984375 214.078125 278.742188 214.078125 L 264.683594 214.078125 C 253.4375 214.078125 243.597656 223.917969 243.597656 235.164062 L 243.597656 263.277344 C 243.597656 274.523438 253.4375 284.363281 264.683594 284.363281 L 278.742188 284.363281 C 281.550781 284.363281 284.363281 282.957031 287.175781 282.957031 C 288.582031 284.363281 289.988281 284.363281 292.796875 284.363281 C 294.203125 284.363281 297.015625 284.363281 298.421875 282.957031 C 299.828125 278.742188 299.828125 274.523438 297.015625 271.710938 Z M 284.363281 260.46875 L 282.957031 259.0625 C 280.144531 256.25 275.929688 256.25 273.117188 259.0625 C 270.304688 261.871094 270.304688 266.089844 273.117188 268.902344 L 274.523438 270.308594 L 263.277344 270.308594 C 259.0625 270.308594 256.25 267.496094 256.25 263.277344 L 256.25 235.164062 C 256.25 230.949219 259.0625 228.136719 263.277344 228.136719 L 277.335938 228.136719 C 281.550781 228.136719 284.363281 230.949219 284.363281 235.164062 Z M 119.894531 311.074219 C 121.300781 311.074219 121.300781 312.480469 122.707031 312.480469 C 125.519531 312.480469 128.328125 311.074219 128.328125 308.261719 L 156.441406 252.035156 C 157.847656 249.222656 156.441406 245.003906 153.632812 242.191406 C 150.820312 240.789062 146.601562 242.191406 143.792969 245.003906 L 135.355469 260.46875 L 126.921875 245.003906 C 125.515625 242.191406 121.300781 240.789062 117.082031 242.191406 C 114.269531 243.597656 112.867188 247.816406 114.269531 252.035156 L 126.921875 277.335938 L 114.269531 302.640625 C 114.273438 305.449219 115.679688 309.667969 119.894531 311.074219 Z M 94.59375 284.363281 C 98.808594 284.363281 101.621094 281.550781 101.621094 277.335938 L 101.621094 221.105469 C 101.621094 218.296875 100.214844 215.484375 97.402344 214.078125 C 94.59375 212.671875 91.78125 214.078125 88.96875 216.890625 L 73.507812 237.976562 L 58.042969 216.890625 C 56.636719 214.078125 52.421875 214.078125 49.609375 214.078125 C 46.796875 215.484375 45.390625 218.296875 45.390625 221.105469 L 45.390625 277.335938 C 45.390625 281.550781 48.203125 284.363281 52.421875 284.363281 C 56.636719 284.363281 59.449219 281.550781 59.449219 277.335938 L 59.449219 242.191406 L 67.882812 253.4375 C 70.695312 257.65625 76.316406 257.65625 79.128906 253.4375 L 87.5625 242.191406 L 87.5625 277.335938 C 87.5625 281.554688 90.375 284.363281 94.59375 284.363281 Z M 94.59375 284.363281 "/>
</g>
</g>
</svg>
