<svg xmlns="http://www.w3.org/2000/svg" width="375" viewBox="0 0 375 375" height="375" version="1.0"><defs><clipPath id="a"><path d="M 36 144.675781 L 275 144.675781 L 275 230 L 36 230 Z M 36 144.675781"/></clipPath></defs><path fill="#6C4EB8" d="M 314.589844 174.941406 C 313.851562 174.941406 313.136719 175.09375 312.5 175.449219 L 292.4375 187.015625 C 291.136719 187.761719 290.347656 189.171875 290.347656 190.671875 L 290.347656 213.757812 C 290.347656 215.253906 291.136719 216.664062 292.4375 217.414062 L 297.675781 220.425781 C 300.222656 221.679688 301.160156 221.660156 302.320312 221.660156 C 306.089844 221.660156 308.242188 219.375 308.242188 215.410156 L 308.242188 192.632812 C 308.242188 192.308594 307.960938 192.078125 307.644531 192.078125 L 305.132812 192.078125 C 304.808594 192.078125 304.535156 192.316406 304.535156 192.632812 L 304.535156 215.417969 C 304.535156 217.175781 302.699219 218.945312 299.722656 217.460938 L 294.273438 214.269531 C 294.082031 214.167969 293.933594 213.976562 293.933594 213.761719 L 293.933594 190.675781 C 293.933594 190.457031 294.078125 190.234375 294.273438 190.121094 L 314.296875 178.601562 C 314.484375 178.492188 314.707031 178.492188 314.894531 178.601562 L 334.917969 190.121094 C 335.105469 190.238281 335.257812 190.449219 335.257812 190.675781 L 335.257812 213.761719 C 335.257812 213.980469 335.148438 214.207031 334.960938 214.3125 L 314.894531 225.835938 C 314.714844 225.9375 314.480469 225.9375 314.296875 225.835938 L 309.144531 222.773438 C 308.988281 222.683594 308.78125 222.691406 308.632812 222.773438 C 307.207031 223.582031 306.941406 223.671875 305.605469 224.136719 C 305.277344 224.25 304.777344 224.425781 305.777344 224.988281 L 312.507812 228.945312 C 313.148438 229.316406 313.863281 229.496094 314.597656 229.496094 C 315.339844 229.496094 316.042969 229.320312 316.683594 228.945312 L 336.75 217.421875 C 338.046875 216.667969 338.835938 215.265625 338.835938 213.765625 L 338.835938 190.679688 C 338.835938 189.179688 338.046875 187.773438 336.75 187.023438 L 316.683594 175.460938 C 316.054688 175.101562 315.335938 174.949219 314.597656 174.949219 Z M 319.957031 191.4375 C 314.242188 191.4375 310.839844 193.863281 310.839844 197.898438 C 310.839844 202.269531 314.21875 203.480469 319.703125 204.019531 C 326.261719 204.660156 326.773438 205.621094 326.773438 206.910156 C 326.773438 209.148438 324.988281 210.101562 320.765625 210.101562 C 315.464844 210.101562 314.296875 208.777344 313.90625 206.140625 C 313.863281 205.859375 313.644531 205.632812 313.355469 205.632812 L 310.75 205.632812 C 310.585938 205.636719 310.445312 205.695312 310.332031 205.808594 C 310.214844 205.925781 310.15625 206.0625 310.152344 206.226562 C 310.152344 209.597656 311.988281 213.582031 320.761719 213.582031 C 327.109375 213.582031 330.773438 211.097656 330.773438 206.734375 C 330.773438 202.421875 327.8125 201.257812 321.65625 200.441406 C 315.4375 199.617188 314.839844 199.21875 314.839844 197.765625 C 314.839844 196.5625 315.34375 194.957031 319.953125 194.957031 C 324.070312 194.957031 325.589844 195.84375 326.214844 198.613281 C 326.269531 198.875 326.5 199.085938 326.769531 199.085938 L 329.375 199.085938 C 329.53125 199.085938 329.6875 198.988281 329.800781 198.875 C 329.910156 198.753906 329.984375 198.613281 329.96875 198.449219 C 329.566406 193.679688 326.378906 191.433594 319.957031 191.433594 Z M 319.957031 191.4375"/><g clip-path="url(#a)"><path fill="#FFF" d="M 196.621094 144.675781 C 196.394531 144.675781 196.183594 144.734375 195.984375 144.847656 C 195.558594 145.09375 195.347656 145.464844 195.34375 145.953125 L 195.34375 178.476562 C 195.34375 178.796875 195.195312 179.082031 194.917969 179.242188 C 194.621094 179.414062 194.324219 179.414062 194.023438 179.242188 L 188.699219 176.179688 C 188.304688 175.953125 187.878906 175.839844 187.421875 175.839844 C 186.964844 175.839844 186.539062 175.953125 186.144531 176.179688 L 164.886719 188.425781 C 164.089844 188.882812 163.605469 189.761719 163.605469 190.675781 L 163.605469 215.164062 C 163.605469 215.621094 163.71875 216.046875 163.949219 216.441406 C 164.175781 216.835938 164.488281 217.148438 164.886719 217.375 L 186.144531 229.621094 C 186.539062 229.847656 186.964844 229.964844 187.421875 229.964844 C 187.878906 229.964844 188.304688 229.847656 188.699219 229.621094 L 209.957031 217.375 C 210.355469 217.148438 210.667969 216.835938 210.894531 216.441406 C 211.125 216.046875 211.238281 215.621094 211.238281 215.164062 L 211.238281 154.117188 C 211.238281 153.1875 210.730469 152.316406 209.917969 151.863281 L 197.261719 144.800781 C 197.0625 144.691406 196.84375 144.671875 196.625 144.675781 Z M 59.871094 175.246094 C 59.464844 175.261719 59.082031 175.332031 58.71875 175.542969 L 37.460938 187.785156 C 37.066406 188.011719 36.753906 188.324219 36.523438 188.71875 C 36.296875 189.113281 36.183594 189.539062 36.183594 189.996094 L 36.226562 222.863281 C 36.226562 223.320312 36.464844 223.742188 36.867188 223.964844 C 37.261719 224.203125 37.75 224.203125 38.144531 223.964844 L 50.753906 216.738281 C 51.554688 216.265625 52.074219 215.441406 52.074219 214.527344 L 52.074219 199.179688 C 52.074219 198.261719 52.558594 197.425781 53.351562 196.96875 L 58.722656 193.867188 C 59.117188 193.636719 59.542969 193.523438 60 193.527344 C 60.457031 193.523438 60.882812 193.636719 61.277344 193.867188 L 66.644531 196.96875 C 67.4375 197.421875 67.921875 198.261719 67.921875 199.175781 L 67.921875 214.523438 C 67.921875 215.4375 68.453125 216.269531 69.242188 216.734375 L 81.851562 223.964844 C 82.25 224.199219 82.738281 224.199219 83.128906 223.964844 C 83.519531 223.738281 83.769531 223.316406 83.769531 222.859375 L 83.8125 189.996094 C 83.8125 189.539062 83.699219 189.113281 83.472656 188.714844 C 83.242188 188.320312 82.929688 188.011719 82.535156 187.785156 L 61.277344 175.542969 C 60.917969 175.335938 60.535156 175.261719 60.125 175.246094 Z M 250.894531 175.542969 C 250.4375 175.542969 250.011719 175.65625 249.617188 175.882812 L 228.359375 188.128906 C 227.566406 188.585938 227.078125 189.421875 227.078125 190.335938 L 227.078125 214.824219 C 227.078125 215.746094 227.601562 216.582031 228.398438 217.035156 L 249.488281 229.03125 C 250.265625 229.472656 251.21875 229.507812 252 229.070312 L 264.78125 221.972656 C 265.1875 221.746094 265.460938 221.328125 265.464844 220.867188 C 265.464844 220.40625 265.226562 219.992188 264.824219 219.761719 L 243.4375 207.515625 C 243.035156 207.289062 242.757812 206.828125 242.757812 206.371094 L 242.757812 198.710938 C 242.757812 198.253906 243.039062 197.835938 243.4375 197.605469 L 250.082031 193.78125 C 250.476562 193.550781 250.964844 193.550781 251.363281 193.78125 L 258.023438 197.605469 C 258.449219 197.851562 258.664062 198.21875 258.660156 198.710938 L 258.660156 204.75 C 258.660156 205.238281 258.875 205.609375 259.300781 205.851562 C 259.699219 206.082031 260.183594 206.082031 260.578125 205.851562 L 273.316406 198.457031 C 274.105469 197.996094 274.59375 197.15625 274.59375 196.246094 L 274.59375 190.335938 C 274.59375 189.878906 274.480469 189.457031 274.253906 189.0625 C 274.023438 188.664062 273.710938 188.355469 273.316406 188.125 L 252.1875 175.882812 C 251.789062 175.652344 251.363281 175.539062 250.90625 175.542969 Z M 187.332031 193.824219 C 187.453125 193.824219 187.566406 193.851562 187.671875 193.910156 L 194.957031 198.117188 C 195.15625 198.230469 195.300781 198.441406 195.300781 198.671875 L 195.300781 207.089844 C 195.300781 207.316406 195.15625 207.527344 194.957031 207.640625 L 187.671875 211.851562 C 187.476562 211.960938 187.234375 211.960938 187.035156 211.851562 L 179.75 207.640625 C 179.550781 207.527344 179.410156 207.316406 179.410156 207.089844 L 179.410156 198.671875 C 179.410156 198.445312 179.550781 198.234375 179.75 198.121094 L 187.035156 193.914062 C 187.132812 193.855469 187.222656 193.828125 187.332031 193.828125 Z M 187.332031 193.824219"/></g><path fill="#6C4EB8" d="M 123.726562 175.414062 C 123.273438 175.414062 122.84375 175.527344 122.449219 175.753906 L 101.191406 187.957031 C 100.394531 188.414062 99.914062 189.296875 99.914062 190.210938 L 99.914062 214.699219 C 99.910156 215.152344 100.027344 215.578125 100.253906 215.972656 C 100.480469 216.371094 100.792969 216.679688 101.191406 216.90625 L 122.449219 229.152344 C 122.84375 229.382812 123.269531 229.496094 123.726562 229.496094 C 124.183594 229.496094 124.609375 229.382812 125.003906 229.152344 L 146.265625 216.90625 C 146.660156 216.679688 146.972656 216.367188 147.199219 215.972656 C 147.429688 215.578125 147.542969 215.152344 147.542969 214.695312 L 147.542969 190.210938 C 147.542969 189.296875 147.058594 188.414062 146.261719 187.957031 L 125.003906 175.757812 C 124.609375 175.527344 124.183594 175.414062 123.726562 175.414062 Z M 250.855469 197.265625 C 250.769531 197.265625 250.675781 197.265625 250.597656 197.308594 L 246.507812 199.691406 C 246.339844 199.78125 246.257812 199.925781 246.253906 200.113281 L 246.253906 204.792969 C 246.253906 204.96875 246.355469 205.128906 246.507812 205.21875 L 250.597656 207.554688 C 250.753906 207.652344 250.910156 207.652344 251.066406 207.554688 L 255.15625 205.21875 C 255.308594 205.128906 255.410156 204.96875 255.410156 204.792969 L 255.410156 200.113281 C 255.410156 199.9375 255.308594 199.777344 255.15625 199.6875 L 251.066406 197.308594 C 250.992188 197.261719 250.9375 197.265625 250.851562 197.265625 Z M 250.855469 197.265625"/></svg>