<?xml version="1.0" encoding="UTF-8"?>
<svg xmlns="http://www.w3.org/2000/svg" xmlns:xlink="http://www.w3.org/1999/xlink" width="375pt" height="374.999991pt" viewBox="0 0 375 374.999991" version="1.2">
<defs>
<clipPath id="clip1">
  <path d="M 19 37.5 L 356 37.5 L 356 368.964844 L 19 368.964844 Z M 19 37.5 "/>
</clipPath>
</defs>
<g id="surface1">
<path style=" stroke:none;fill-rule:nonzero;fill:rgb(35.688782%,36.079407%,42.349243%);fill-opacity:1;" d="M 349.613281 189.359375 L 272.160156 323.636719 C 270.675781 326.214844 267.933594 327.796875 264.957031 327.796875 L 110.042969 327.796875 C 107.078125 327.796875 104.335938 326.214844 102.847656 323.636719 L 96.6875 312.953125 C 108.363281 311.519531 119.71875 309.046875 130.660156 305.632812 L 255.097656 305.632812 C 256.253906 305.632812 257.324219 305.011719 257.90625 304.003906 L 325.503906 186.824219 C 326.085938 185.820312 326.085938 184.578125 325.503906 183.570312 L 262.550781 74.441406 C 259.976562 63.441406 256.46875 52.789062 252.117188 42.597656 L 264.957031 42.597656 C 267.933594 42.597656 270.671875 44.191406 272.160156 46.765625 L 349.613281 181.042969 C 351.101562 183.613281 351.101562 186.78125 349.613281 189.359375 "/>
<path style=" stroke:none;fill-rule:nonzero;fill:rgb(43.919373%,45.098877%,51.759338%);fill-opacity:1;" d="M 267.691406 119.164062 C 267.691406 206.773438 210.054688 280.902344 130.660156 305.632812 C 119.714844 309.046875 108.363281 311.519531 96.6875 312.953125 L 25.394531 189.359375 C 23.910156 186.78125 23.910156 183.613281 25.394531 181.042969 L 102.847656 46.765625 C 104.335938 44.191406 107.078125 42.597656 110.042969 42.597656 L 252.117188 42.597656 C 256.46875 52.789062 259.976562 63.441406 262.550781 74.441406 C 265.914062 88.804688 267.691406 103.78125 267.691406 119.164062 "/>
<path style=" stroke:none;fill-rule:nonzero;fill:rgb(27.449036%,27.449036%,33.329773%);fill-opacity:1;" d="M 325.503906 186.824219 L 257.90625 304.003906 C 257.324219 305.011719 256.253906 305.632812 255.097656 305.632812 L 130.660156 305.632812 C 210.054688 280.902344 267.691406 206.773438 267.691406 119.167969 C 267.691406 103.78125 265.914062 88.804688 262.550781 74.441406 L 325.503906 183.570312 C 326.085938 184.578125 326.085938 185.820312 325.503906 186.824219 "/>
<path style=" stroke:none;fill-rule:nonzero;fill:rgb(35.688782%,36.079407%,42.349243%);fill-opacity:1;" d="M 267.691406 119.164062 C 267.691406 206.773438 210.054688 280.902344 130.660156 305.632812 L 119.910156 305.632812 C 118.75 305.632812 117.675781 305.011719 117.09375 304.003906 L 49.507812 186.824219 C 48.925781 185.820312 48.925781 184.578125 49.507812 183.570312 L 117.09375 66.394531 C 117.675781 65.386719 118.75 64.765625 119.910156 64.765625 L 255.097656 64.765625 C 256.253906 64.765625 257.324219 65.386719 257.90625 66.394531 L 262.550781 74.4375 C 265.914062 88.804688 267.691406 103.78125 267.691406 119.164062 "/>
<path style=" stroke:none;fill-rule:nonzero;fill:rgb(76.469421%,70.588684%,98.039246%);fill-opacity:1;" d="M 279.332031 363.875 L 95.671875 363.875 C 89.140625 363.875 83.851562 358.574219 83.851562 352.046875 L 83.851562 281.003906 C 83.851562 274.46875 89.140625 269.175781 95.671875 269.175781 L 279.332031 269.175781 C 285.867188 269.175781 291.15625 274.46875 291.15625 281.003906 L 291.15625 352.046875 C 291.15625 358.574219 285.867188 363.875 279.332031 363.875 "/>
<path style=" stroke:none;fill-rule:nonzero;fill:rgb(62.748718%,60.778809%,100%);fill-opacity:1;" d="M 279.339844 269.175781 L 260.429688 269.175781 C 266.957031 269.175781 272.25 274.472656 272.25 281.007812 L 272.25 352.042969 C 272.25 358.574219 266.957031 363.875 260.429688 363.875 L 279.339844 363.875 C 285.867188 363.875 291.15625 358.574219 291.15625 352.042969 L 291.15625 281.007812 C 291.15625 274.46875 285.867188 269.175781 279.339844 269.175781 "/>
<path style=" stroke:none;fill-rule:nonzero;fill:rgb(62.748718%,86.268616%,94.119263%);fill-opacity:1;" d="M 198.28125 170.121094 C 198.28125 176.078125 193.457031 180.90625 187.503906 180.90625 C 181.550781 180.90625 176.726562 176.078125 176.726562 170.121094 C 176.726562 164.164062 181.550781 159.332031 187.503906 159.332031 C 193.457031 159.332031 198.28125 164.164062 198.28125 170.121094 "/>
<g clip-path="url(#clip1)" clip-rule="nonzero">
<path style=" stroke:none;fill-rule:nonzero;fill:rgb(0%,0%,0%);fill-opacity:1;" d="M 353.882812 178.574219 L 296.691406 79.433594 C 295.332031 77.070312 292.316406 76.265625 289.960938 77.628906 C 287.605469 78.988281 286.796875 82.003906 288.160156 84.359375 L 345.351562 183.5 C 345.953125 184.546875 345.953125 185.847656 345.351562 186.890625 L 294.785156 274.546875 C 293.089844 270.492188 289.84375 267.242188 285.785156 265.539062 L 329.777344 189.277344 C 331.222656 186.761719 331.222656 183.636719 329.773438 181.113281 L 262.183594 63.933594 C 260.730469 61.410156 258.019531 59.839844 255.097656 59.839844 L 119.90625 59.839844 C 116.992188 59.839844 114.277344 61.410156 112.832031 63.925781 L 45.230469 181.117188 C 43.785156 183.636719 43.785156 186.761719 45.234375 189.285156 L 73.566406 238.40625 C 74.925781 240.761719 77.9375 241.570312 80.296875 240.210938 C 82.652344 238.847656 83.460938 235.835938 82.101562 233.480469 L 54.25 185.199219 L 120.878906 69.699219 L 254.128906 69.699219 L 320.757812 185.199219 L 275.160156 264.25 L 99.847656 264.25 L 93.054688 252.46875 C 91.695312 250.109375 88.679688 249.300781 86.324219 250.664062 C 83.96875 252.023438 83.160156 255.035156 84.519531 257.394531 L 89.21875 265.539062 C 85.164062 267.242188 81.917969 270.492188 80.21875 274.546875 L 29.65625 186.898438 C 29.050781 185.847656 29.050781 184.546875 29.65625 183.5 L 107.117188 49.226562 C 107.71875 48.179688 108.84375 47.53125 110.046875 47.53125 L 264.957031 47.53125 C 266.164062 47.53125 267.285156 48.179688 267.886719 49.226562 L 278.277344 67.230469 C 279.636719 69.589844 282.652344 70.398438 285.003906 69.039062 C 287.363281 67.679688 288.167969 64.660156 286.808594 62.308594 L 276.425781 44.300781 C 274.066406 40.210938 269.675781 37.675781 264.957031 37.675781 L 110.046875 37.675781 C 105.328125 37.675781 100.9375 40.210938 98.582031 44.300781 L 21.117188 178.578125 C 18.765625 182.660156 18.765625 187.734375 21.125 191.824219 L 78.925781 292.027344 L 78.925781 352.046875 C 78.925781 361.28125 86.4375 368.800781 95.671875 368.800781 L 230.855469 368.800781 C 233.574219 368.800781 235.78125 366.59375 235.78125 363.875 C 235.78125 361.148438 233.574219 358.945312 230.855469 358.945312 L 95.671875 358.945312 C 91.871094 358.945312 88.777344 355.847656 88.777344 352.046875 L 88.777344 290.675781 C 88.777344 290.636719 88.777344 290.59375 88.777344 290.554688 L 88.777344 281.003906 C 88.777344 277.199219 91.871094 274.105469 95.671875 274.105469 L 96.960938 274.105469 C 96.972656 274.105469 96.992188 274.109375 97.007812 274.109375 C 97.027344 274.109375 97.042969 274.105469 97.058594 274.105469 L 277.949219 274.105469 C 277.964844 274.105469 277.980469 274.109375 277.996094 274.109375 C 278.011719 274.109375 278.027344 274.105469 278.050781 274.105469 L 279.332031 274.105469 C 283.136719 274.105469 286.230469 277.199219 286.230469 281.003906 L 286.230469 290.554688 C 286.226562 290.59375 286.230469 290.636719 286.230469 290.675781 L 286.230469 352.046875 C 286.230469 355.847656 283.136719 358.945312 279.332031 358.945312 L 252.527344 358.945312 C 249.808594 358.945312 247.601562 361.148438 247.601562 363.875 C 247.601562 366.59375 249.808594 368.800781 252.527344 368.800781 L 279.332031 368.800781 C 288.570312 368.800781 296.082031 361.28125 296.082031 352.046875 L 296.082031 292.027344 L 353.882812 191.820312 C 356.238281 187.734375 356.238281 182.660156 353.882812 178.574219 "/>
</g>
<path style=" stroke:none;fill-rule:nonzero;fill:rgb(0%,0%,0%);fill-opacity:1;" d="M 124.203125 314.292969 L 115.984375 314.292969 L 115.984375 298.359375 L 124.203125 298.359375 C 129.535156 298.359375 132.199219 301.027344 132.199219 306.363281 C 132.199219 311.652344 129.535156 314.292969 124.203125 314.292969 Z M 139.261719 315.339844 C 141.03125 312.847656 141.917969 309.554688 141.917969 305.464844 C 141.917969 295.046875 136.011719 289.832031 124.203125 289.832031 L 109.410156 289.832031 C 108.507812 289.832031 107.761719 290.132812 107.164062 290.726562 C 106.566406 291.328125 106.265625 292.027344 106.265625 292.824219 L 106.265625 341.445312 C 106.265625 342.394531 106.75 343.140625 107.726562 343.691406 C 108.691406 344.238281 109.828125 344.511719 111.125 344.511719 C 112.46875 344.511719 113.617188 344.238281 114.5625 343.691406 C 115.507812 343.140625 115.984375 342.394531 115.984375 341.445312 L 115.984375 321.921875 L 122.261719 321.921875 L 132.875 342.570312 C 133.667969 344.113281 134.792969 344.890625 136.238281 344.890625 C 137.683594 344.890625 139.050781 344.351562 140.347656 343.28125 C 141.640625 342.207031 142.289062 341.046875 142.289062 339.800781 C 142.289062 339.304688 142.164062 338.902344 141.917969 338.605469 L 132.128906 320.425781 C 135.117188 319.527344 137.496094 317.835938 139.261719 315.339844 "/>
<path style=" stroke:none;fill-rule:nonzero;fill:rgb(0%,0%,0%);fill-opacity:1;" d="M 155.519531 321.609375 C 155.519531 319.984375 156.164062 318.667969 157.460938 317.664062 C 158.753906 316.664062 160.277344 316.160156 162.019531 316.160156 C 163.867188 316.160156 165.417969 316.675781 166.691406 317.699219 C 167.960938 318.726562 168.597656 320.050781 168.597656 321.679688 C 168.597656 322.429688 168.433594 322.929688 168.109375 323.179688 C 167.785156 323.445312 167.226562 323.566406 166.429688 323.566406 L 155.519531 323.566406 Z M 170.6875 329.253906 C 171.738281 329.253906 172.582031 329.207031 173.234375 329.105469 C 173.878906 329.007812 174.585938 328.757812 175.363281 328.363281 C 176.132812 327.96875 176.703125 327.289062 177.082031 326.328125 C 177.453125 325.363281 177.644531 324.140625 177.644531 322.660156 C 177.644531 318.601562 176.132812 315.230469 173.121094 312.554688 C 170.101562 309.875 166.480469 308.53125 162.246094 308.53125 C 157.710938 308.53125 153.847656 310.003906 150.660156 312.945312 C 147.472656 315.890625 145.878906 319.402344 145.878906 323.492188 L 145.878906 329.851562 C 145.878906 334.441406 147.558594 338.144531 150.921875 340.960938 C 154.285156 343.777344 158.632812 345.1875 163.960938 345.1875 C 167.699219 345.1875 170.828125 344.503906 173.347656 343.128906 C 175.859375 341.753906 177.121094 340.375 177.121094 338.976562 C 177.121094 338.082031 176.769531 337.144531 176.070312 336.175781 C 175.375 335.203125 174.503906 334.710938 173.457031 334.710938 C 172.90625 334.710938 171.710938 335.1875 169.867188 336.136719 C 168.023438 337.082031 166.160156 337.554688 164.265625 337.554688 C 161.621094 337.554688 159.503906 336.894531 157.910156 335.574219 C 156.316406 334.253906 155.519531 332.519531 155.519531 330.375 L 155.519531 329.253906 L 170.6875 329.253906 "/>
<path style=" stroke:none;fill-rule:nonzero;fill:rgb(0%,0%,0%);fill-opacity:1;" d="M 201.78125 330.746094 C 201.78125 332.445312 201.03125 334.007812 199.535156 335.429688 C 198.042969 336.847656 196.496094 337.554688 194.902344 337.554688 C 193.707031 337.554688 192.75 337.238281 192.027344 336.601562 C 191.304688 335.960938 190.941406 335.003906 190.941406 333.726562 C 190.941406 331.925781 191.800781 330.730469 193.519531 330.140625 C 195.238281 329.546875 197.621094 329.253906 200.660156 329.253906 L 201.78125 329.253906 Z M 203.609375 343.550781 C 204.429688 344.195312 205.46875 344.511719 206.710938 344.511719 C 208.058594 344.511719 209.179688 344.214844 210.074219 343.617188 C 210.972656 343.019531 211.417969 342.296875 211.417969 341.445312 L 211.417969 323.117188 C 211.417969 318.933594 210.097656 315.453125 207.457031 312.6875 C 204.820312 309.914062 200.78125 308.53125 195.351562 308.53125 C 192.511719 308.53125 189.808594 309.066406 187.246094 310.140625 C 184.675781 311.214844 183.394531 312.472656 183.394531 313.917969 C 183.394531 315.117188 183.695312 316.214844 184.292969 317.210938 C 184.886719 318.207031 185.683594 318.707031 186.683594 318.707031 C 186.933594 318.707031 187.855469 318.285156 189.449219 317.433594 C 191.039062 316.585938 192.960938 316.160156 195.207031 316.160156 C 197.445312 316.160156 199.101562 316.867188 200.171875 318.28125 C 201.242188 319.6875 201.78125 321.34375 201.78125 323.242188 L 201.78125 324.242188 L 198.714844 324.242188 C 193.085938 324.242188 188.777344 325.039062 185.785156 326.640625 C 182.796875 328.238281 181.300781 331.003906 181.300781 334.929688 C 181.300781 338.273438 182.207031 340.816406 184.03125 342.566406 C 185.847656 344.3125 188.179688 345.1875 191.019531 345.1875 C 195.152344 345.1875 198.941406 343.09375 202.378906 338.914062 L 202.378906 341.234375 C 202.378906 342.140625 202.789062 342.914062 203.609375 343.550781 "/>
<path style=" stroke:none;fill-rule:nonzero;fill:rgb(0%,0%,0%);fill-opacity:1;" d="M 241.839844 334.488281 C 241.4375 334.488281 240.515625 334.851562 239.070312 335.574219 C 237.625 336.300781 236.058594 336.65625 234.363281 336.65625 C 229.476562 336.65625 227.039062 334.382812 227.039062 329.828125 L 227.039062 323.886719 C 227.039062 319.335938 229.457031 317.0625 234.289062 317.0625 C 235.984375 317.0625 237.566406 317.398438 239.03125 318.070312 C 240.503906 318.742188 241.390625 319.078125 241.6875 319.078125 C 242.734375 319.078125 243.628906 318.554688 244.378906 317.503906 C 245.125 316.460938 245.5 315.410156 245.5 314.363281 C 245.5 312.871094 244.351562 311.523438 242.0625 310.324219 C 239.769531 309.132812 236.929688 308.53125 233.542969 308.53125 C 228.160156 308.53125 224.125 309.941406 221.433594 312.757812 C 218.746094 315.574219 217.398438 319.28125 217.398438 323.863281 L 217.398438 329.851562 C 217.398438 334.488281 218.746094 338.203125 221.433594 340.996094 C 224.125 343.792969 228.183594 345.1875 233.617188 345.1875 C 237.003906 345.1875 239.90625 344.550781 242.324219 343.277344 C 244.738281 342.003906 245.945312 340.597656 245.945312 339.050781 C 245.945312 338.007812 245.558594 336.984375 244.789062 335.984375 C 244.015625 334.988281 243.03125 334.488281 241.839844 334.488281 "/>
<path style=" stroke:none;fill-rule:nonzero;fill:rgb(0%,0%,0%);fill-opacity:1;" d="M 259.136719 294.550781 C 258.167969 293.996094 257.03125 293.722656 255.738281 293.722656 C 254.542969 293.722656 253.445312 294.007812 252.449219 294.570312 C 251.449219 295.140625 250.953125 295.84375 250.953125 296.679688 L 250.953125 332.535156 C 250.953125 340.523438 255.5625 344.511719 264.78125 344.511719 L 267.695312 344.511719 C 268.992188 344.511719 270.003906 344.097656 270.722656 343.261719 C 271.445312 342.425781 271.804688 341.410156 271.804688 340.210938 C 271.804688 339.0625 271.445312 338.074219 270.722656 337.238281 C 270.003906 336.402344 268.992188 335.984375 267.695312 335.984375 L 264.78125 335.984375 C 263.238281 335.984375 262.15625 335.703125 261.53125 335.128906 C 260.90625 334.558594 260.59375 333.585938 260.59375 332.210938 L 260.59375 316.609375 L 269.414062 316.609375 C 270.164062 316.609375 270.757812 316.230469 271.210938 315.476562 C 271.65625 314.71875 271.882812 313.824219 271.882812 312.796875 C 271.882812 311.769531 271.65625 310.878906 271.210938 310.121094 C 270.757812 309.363281 270.164062 308.980469 269.414062 308.980469 L 260.59375 308.980469 L 260.59375 296.601562 C 260.59375 295.785156 260.109375 295.101562 259.136719 294.550781 "/>
<path style=" stroke:none;fill-rule:nonzero;fill:rgb(0%,0%,0%);fill-opacity:1;" d="M 187.503906 164.261719 C 190.730469 164.261719 193.355469 166.890625 193.355469 170.121094 C 193.355469 173.351562 190.730469 175.980469 187.503906 175.980469 C 184.277344 175.980469 181.652344 173.351562 181.652344 170.121094 C 181.652344 166.890625 184.277344 164.261719 187.503906 164.261719 Z M 187.503906 185.835938 C 196.164062 185.835938 203.207031 178.785156 203.207031 170.121094 C 203.207031 161.457031 196.164062 154.40625 187.503906 154.40625 C 178.84375 154.40625 171.800781 161.457031 171.800781 170.121094 C 171.800781 178.785156 178.84375 185.835938 187.503906 185.835938 "/>
<path style=" stroke:none;fill-rule:nonzero;fill:rgb(0%,0%,0%);fill-opacity:1;" d="M 145.441406 170.121094 C 142.488281 176.929688 140.082031 183.671875 138.292969 190.183594 C 123.542969 184.753906 114.839844 177.21875 114.839844 170.121094 C 114.839844 163.023438 123.542969 155.488281 138.292969 150.058594 C 140.082031 156.566406 142.488281 163.3125 145.441406 170.121094 Z M 151.171875 107.132812 C 152.710938 106.242188 154.523438 105.804688 156.574219 105.804688 C 162.0625 105.804688 169.222656 108.9375 177.113281 114.921875 C 178.160156 115.714844 179.207031 116.566406 180.253906 117.441406 C 175.519531 122.246094 170.882812 127.699219 166.472656 133.664062 C 159.105469 134.507812 152.066406 135.796875 145.539062 137.5 C 142.863281 121.996094 145.027344 110.679688 151.171875 107.132812 Z M 223.835938 107.132812 C 229.976562 110.679688 232.144531 121.996094 229.46875 137.5 C 222.941406 135.796875 215.902344 134.507812 208.535156 133.664062 C 204.121094 127.699219 199.488281 122.246094 194.753906 117.441406 C 195.800781 116.566406 196.847656 115.714844 197.894531 114.921875 C 208.726562 106.707031 218.183594 103.867188 223.835938 107.132812 Z M 260.167969 170.121094 C 260.167969 177.21875 251.464844 184.753906 236.714844 190.183594 C 234.925781 183.671875 232.519531 176.929688 229.566406 170.121094 C 232.519531 163.3125 234.925781 156.566406 236.714844 150.058594 C 251.464844 155.488281 260.167969 163.023438 260.167969 170.121094 Z M 223.835938 233.109375 C 218.183594 236.375 208.726562 233.535156 197.894531 225.316406 C 196.847656 224.527344 195.800781 223.675781 194.753906 222.804688 C 199.488281 218 204.121094 212.539062 208.535156 206.578125 C 215.902344 205.734375 222.941406 204.445312 229.46875 202.746094 C 232.144531 218.242188 229.976562 229.5625 223.835938 233.109375 Z M 154.925781 188.945312 C 156.226562 191.195312 157.558594 193.402344 158.921875 195.5625 C 154.960938 194.878906 151.207031 194.058594 147.691406 193.128906 C 148.644531 189.617188 149.8125 185.949219 151.203125 182.171875 C 152.386719 184.4375 153.628906 186.695312 154.925781 188.945312 Z M 187.503906 216.121094 C 184.894531 213.492188 182.3125 210.652344 179.777344 207.609375 C 182.328125 207.714844 184.910156 207.769531 187.503906 207.769531 C 190.097656 207.769531 192.679688 207.714844 195.226562 207.609375 C 192.695312 210.652344 190.113281 213.492188 187.503906 216.121094 Z M 223.804688 182.171875 C 225.195312 185.949219 226.363281 189.617188 227.316406 193.128906 C 223.800781 194.058594 220.046875 194.878906 216.078125 195.5625 C 217.445312 193.402344 218.78125 191.195312 220.078125 188.945312 C 221.378906 186.695312 222.621094 184.4375 223.804688 182.171875 Z M 220.078125 151.296875 C 218.78125 149.046875 217.445312 146.84375 216.078125 144.679688 C 220.046875 145.363281 223.800781 146.1875 227.316406 147.113281 C 226.363281 150.628906 225.195312 154.289062 223.804688 158.070312 C 222.621094 155.808594 221.378906 153.546875 220.078125 151.296875 Z M 187.503906 124.117188 C 190.113281 126.746094 192.695312 129.585938 195.226562 132.632812 C 192.671875 132.527344 190.097656 132.472656 187.503906 132.472656 C 184.910156 132.472656 182.328125 132.527344 179.777344 132.632812 C 182.3125 129.585938 184.894531 126.746094 187.503906 124.117188 Z M 163.460938 156.222656 C 166.128906 151.605469 168.945312 147.1875 171.875 143.003906 C 176.855469 142.566406 182.074219 142.332031 187.503906 142.332031 C 192.933594 142.332031 198.152344 142.566406 203.128906 143.003906 C 206.058594 147.1875 208.882812 151.605469 211.546875 156.222656 C 214.265625 160.9375 216.671875 165.585938 218.78125 170.121094 C 216.671875 174.660156 214.265625 179.308594 211.546875 184.015625 C 208.882812 188.636719 206.058594 193.054688 203.128906 197.234375 C 198.152344 197.675781 192.933594 197.910156 187.503906 197.910156 C 182.074219 197.910156 176.855469 197.675781 171.875 197.234375 C 168.945312 193.054688 166.128906 188.636719 163.460938 184.015625 C 160.742188 179.308594 158.335938 174.660156 156.226562 170.121094 C 158.335938 165.585938 160.742188 160.9375 163.460938 156.222656 Z M 151.203125 158.070312 C 149.8125 154.289062 148.644531 150.628906 147.691406 147.113281 C 151.207031 146.179688 154.960938 145.363281 158.929688 144.679688 C 157.5625 146.839844 156.226562 149.046875 154.925781 151.296875 C 153.628906 153.546875 152.386719 155.808594 151.203125 158.070312 Z M 151.171875 233.109375 C 145.027344 229.5625 142.863281 218.242188 145.539062 202.746094 C 152.066406 204.445312 159.105469 205.734375 166.472656 206.578125 C 170.882812 212.539062 175.515625 218 180.253906 222.804688 C 179.207031 223.675781 178.160156 224.527344 177.113281 225.316406 C 166.28125 233.535156 156.824219 236.375 151.171875 233.109375 Z M 104.984375 170.121094 C 104.984375 180.96875 114.128906 190.800781 130.726562 197.796875 C 132.4375 198.523438 134.222656 199.203125 136.054688 199.851562 C 135.699219 201.761719 135.394531 203.648438 135.164062 205.496094 C 132.921875 223.382812 136.855469 236.222656 146.246094 241.644531 C 149.296875 243.410156 152.738281 244.28125 156.488281 244.28125 C 164.269531 244.28125 173.378906 240.519531 183.066406 233.175781 C 184.542969 232.050781 186.023438 230.84375 187.503906 229.582031 C 188.980469 230.84375 190.460938 232.050781 191.941406 233.175781 C 201.628906 240.523438 210.738281 244.28125 218.519531 244.28125 C 222.269531 244.28125 225.710938 243.410156 228.765625 241.644531 C 238.152344 236.222656 242.085938 223.382812 239.84375 205.496094 C 239.609375 203.648438 239.304688 201.761719 238.953125 199.851562 C 240.785156 199.203125 242.566406 198.523438 244.285156 197.796875 C 260.882812 190.800781 270.019531 180.96875 270.019531 170.121094 C 270.019531 159.273438 260.882812 149.441406 244.285156 142.445312 C 242.566406 141.722656 240.785156 141.042969 238.953125 140.390625 C 239.304688 138.476562 239.609375 136.589844 239.84375 134.742188 C 242.085938 116.859375 238.152344 104.019531 228.765625 98.597656 C 219.375 93.167969 206.296875 96.179688 191.941406 107.066406 C 190.460938 108.191406 188.980469 109.398438 187.5 110.660156 C 186.023438 109.398438 184.542969 108.191406 183.0625 107.066406 C 168.707031 96.179688 155.632812 93.167969 146.238281 98.597656 C 136.855469 104.019531 132.917969 116.859375 135.164062 134.742188 C 135.394531 136.589844 135.699219 138.476562 136.050781 140.390625 C 134.222656 141.042969 132.4375 141.722656 130.722656 142.445312 C 114.128906 149.441406 104.984375 159.273438 104.984375 170.121094 "/>
</g>
</svg>
