<?xml version="1.0" encoding="UTF-8"?>
<svg xmlns="http://www.w3.org/2000/svg" xmlns:xlink="http://www.w3.org/1999/xlink" width="1440pt" height="809.999993pt" viewBox="0 0 1440 809.999993" version="1.2">
<defs>
<clipPath id="clip1">
  <path d="M 699.148438 248 L 896.527344 248 L 896.527344 452 L 699.148438 452 Z M 699.148438 248 "/>
</clipPath>
<clipPath id="clip2">
  <path d="M 544 176.796875 L 884.90625 176.796875 L 884.90625 656 L 544 656 Z M 544 176.796875 "/>
</clipPath>
<clipPath id="clip3">
  <path d="M 543.316406 176 L 885.9375 176 L 885.9375 656.488281 L 543.316406 656.488281 Z M 543.316406 176 "/>
</clipPath>
</defs>
<g id="surface1">
<path style=" stroke:none;fill-rule:nonzero;fill:rgb(6.269836%,5.879211%,5.099487%);fill-opacity:1;" d="M 750.03125 464.574219 L 767.671875 430.53125 L 864.894531 419.871094 C 864.894531 419.871094 884.582031 424.792969 887.863281 451.449219 C 891.144531 478.109375 873.097656 499.4375 845.203125 499.4375 C 817.308594 499.4375 798.027344 499.4375 798.027344 499.4375 L 750.03125 464.574219 "/>
<g clip-path="url(#clip1)" clip-rule="nonzero">
<path style=" stroke:none;fill-rule:nonzero;fill:rgb(42.349243%,30.589294%,69.40918%);fill-opacity:1;" d="M 810.335938 250.484375 C 810.335938 250.484375 853.816406 264.835938 876.378906 272.632812 C 898.941406 280.421875 901.8125 317.335938 888.6875 339.890625 C 875.5625 362.449219 875.5625 362.449219 875.5625 362.449219 L 887.863281 451.449219 C 887.863281 451.449219 858.332031 432.171875 830.847656 432.171875 C 803.363281 432.171875 759.46875 432.171875 759.46875 432.171875 L 743.46875 353.835938 L 739.367188 365.730469 L 699.167969 353.425781 C 699.167969 353.425781 710.652344 320.207031 717.214844 300.519531 C 723.777344 280.835938 741.007812 273.863281 755.367188 266.070312 C 769.726562 258.277344 787.773438 248.433594 787.773438 248.433594 L 810.335938 250.484375 "/>
</g>
<g clip-path="url(#clip2)" clip-rule="nonzero">
<path style=" stroke:none;fill-rule:nonzero;fill:rgb(100%,100%,100%);fill-opacity:1;" d="M 661.582031 423.972656 L 782.253906 423.972656 C 784.253906 423.972656 785.875 422.351562 785.875 420.351562 L 785.875 418.433594 L 661.582031 418.433594 Z M 701.839844 354.03125 L 694.148438 369.214844 L 693.753906 414.570312 L 724.917969 400.769531 L 737.933594 365.273438 Z M 801.722656 507.640625 L 801.722656 655.699219 L 869.554688 655.699219 C 872.679688 655.699219 873.632812 651.460938 870.8125 650.121094 L 842.492188 636.636719 C 830.117188 630.742188 822.230469 618.257812 822.230469 604.550781 L 822.230469 508.050781 Z M 825.511719 364.914062 L 817.308594 383.367188 L 753.203125 372.097656 C 746.671875 370.949219 740.023438 373.371094 735.761719 378.453125 L 710.652344 408.386719 L 711.886719 418.640625 C 711.886719 418.640625 719.265625 412.898438 729.523438 410.847656 C 739.777344 408.796875 748.804688 396.902344 748.804688 396.902344 L 808.957031 420.800781 C 826.796875 427.882812 847.074219 419.886719 855.265625 402.535156 L 864.894531 382.140625 Z M 811.566406 431.355469 L 544.105469 431.355469 L 544.105469 655.640625 L 811.566406 655.640625 Z M 811.566406 423.972656 L 544.105469 423.972656 L 544.105469 431.765625 L 811.566406 431.765625 Z M 635.894531 367.683594 C 629.941406 367.683594 625.121094 372.503906 625.121094 378.449219 C 625.121094 384.390625 629.941406 389.210938 635.894531 389.210938 C 641.839844 389.210938 646.660156 384.390625 646.660156 378.449219 C 646.660156 372.503906 641.839844 367.683594 635.894531 367.683594 Z M 791.269531 508.050781 L 881.5 508.050781 C 883.195312 508.050781 884.582031 506.664062 884.582031 504.96875 L 884.582031 501.703125 C 884.582031 500.003906 883.195312 498.613281 881.5 498.613281 L 791.269531 498.613281 C 789.570312 498.613281 788.183594 500.003906 788.183594 501.703125 L 788.183594 504.96875 C 788.183594 506.664062 789.570312 508.050781 791.269531 508.050781 Z M 789.414062 229.976562 C 789.414062 229.976562 784.492188 234.898438 773.007812 242.28125 C 761.519531 249.664062 749.621094 250.894531 745.933594 239.410156 C 742.242188 227.925781 736.085938 197.578125 736.085938 197.578125 C 735.878906 178.09375 787.773438 172.765625 794.335938 179.941406 C 802.945312 189.359375 795.566406 207.832031 795.566406 207.832031 L 814.027344 251.714844 C 809.226562 258.234375 803.835938 262.320312 798.640625 264.84375 C 786.519531 270.734375 775.464844 268.121094 775.464844 268.121094 L 773.007812 242.28125 "/>
</g>
<g clip-path="url(#clip3)" clip-rule="nonzero">
<path style=" stroke:none;fill-rule:nonzero;fill:rgb(6.269836%,5.879211%,5.099487%);fill-opacity:1;" d="M 751.460938 182.851562 C 766.933594 176.757812 789.875 176.226562 793.753906 180.472656 C 801.929688 189.410156 794.910156 207.355469 794.835938 207.535156 C 794.757812 207.730469 794.757812 207.945312 794.839844 208.136719 L 813.125 251.605469 C 808.957031 257.164062 803.96875 261.378906 798.296875 264.136719 C 788.085938 269.09375 778.546875 267.871094 776.195312 267.457031 L 773.835938 242.6875 C 784.972656 235.488281 789.773438 230.734375 789.96875 230.535156 C 790.28125 230.226562 790.28125 229.726562 789.96875 229.417969 C 789.664062 229.113281 789.164062 229.113281 788.859375 229.417969 C 788.808594 229.46875 783.847656 234.375 772.589844 241.609375 C 772.582031 241.613281 772.574219 241.617188 772.566406 241.625 C 765.054688 246.453125 757.960938 248.21875 753.117188 246.488281 C 750.058594 245.390625 747.890625 242.929688 746.683594 239.167969 C 744.574219 232.605469 741.628906 219.714844 739.515625 210.011719 C 739.585938 210.03125 739.652344 210.054688 739.726562 210.054688 C 739.910156 210.054688 740.097656 209.992188 740.246094 209.863281 C 742.375 207.996094 746.292969 208.796875 746.332031 208.804688 C 746.746094 208.894531 747.175781 208.625 747.269531 208.199219 C 747.355469 207.773438 747.085938 207.355469 746.664062 207.261719 C 746.46875 207.222656 741.949219 206.292969 739.222656 208.660156 C 737.851562 202.3125 736.890625 197.628906 736.875 197.570312 C 736.796875 190.191406 744.765625 185.492188 751.460938 182.851562 Z M 752.585938 247.96875 C 757.730469 249.816406 764.710938 248.273438 772.339844 243.628906 L 774.679688 268.195312 C 774.710938 268.53125 774.953125 268.8125 775.285156 268.886719 C 775.5 268.941406 777.972656 269.5 781.785156 269.5 C 786.207031 269.5 792.417969 268.742188 798.988281 265.554688 C 805.011719 262.628906 810.289062 258.125 814.660156 252.183594 C 814.828125 251.960938 814.863281 251.664062 814.753906 251.40625 L 796.421875 207.820312 C 797.382812 205.261719 803.253906 188.519531 794.921875 179.40625 C 790.183594 174.230469 766.316406 175.300781 750.882812 181.382812 C 740.617188 185.429688 735.230469 191.03125 735.3125 197.730469 C 735.375 198.035156 741.519531 228.257812 745.179688 239.652344 C 746.546875 243.898438 749.039062 246.699219 752.585938 247.96875 Z M 754.265625 205.1875 C 754.054688 204.808594 754.1875 204.328125 754.570312 204.117188 C 754.738281 204.023438 758.769531 201.816406 764.105469 203.433594 C 764.523438 203.5625 764.757812 204 764.632812 204.417969 C 764.503906 204.835938 764.070312 205.070312 763.652344 204.945312 C 758.976562 203.527344 755.375 205.476562 755.339844 205.492188 C 755.21875 205.5625 755.089844 205.59375 754.960938 205.59375 C 754.679688 205.59375 754.410156 205.449219 754.265625 205.1875 Z M 764.554688 225.199219 C 763.246094 232.378906 758.035156 233.761719 757.8125 233.820312 C 757.75 233.835938 757.683594 233.84375 757.621094 233.84375 C 757.269531 233.84375 756.945312 233.601562 756.859375 233.242188 C 756.753906 232.824219 757.007812 232.394531 757.429688 232.289062 C 757.628906 232.234375 761.886719 231.046875 763 224.914062 C 763.078125 224.484375 763.488281 224.195312 763.917969 224.277344 C 764.347656 224.359375 764.628906 224.765625 764.554688 225.199219 Z M 747.585938 217.5 C 748.019531 217.507812 748.367188 217.867188 748.359375 218.300781 L 748.203125 226.613281 C 748.199219 226.917969 748.339844 227.191406 748.589844 227.367188 C 748.84375 227.539062 749.148438 227.570312 749.433594 227.453125 L 754.039062 225.554688 C 754.445312 225.394531 754.90625 225.585938 755.070312 225.988281 C 755.238281 226.386719 755.042969 226.851562 754.640625 227.015625 L 750.03125 228.914062 C 749.730469 229.039062 749.414062 229.097656 749.09375 229.097656 C 748.601562 229.097656 748.117188 228.953125 747.703125 228.667969 C 747.011719 228.195312 746.609375 227.417969 746.625 226.585938 L 746.785156 218.273438 C 746.792969 217.839844 747.15625 217.515625 747.585938 217.5 Z M 742.691406 353.984375 L 734.796875 311.777344 C 734.714844 311.34375 734.996094 310.933594 735.425781 310.851562 C 735.855469 310.78125 736.265625 311.054688 736.347656 311.484375 L 744.246094 353.691406 C 744.324219 354.125 744.042969 354.535156 743.617188 354.617188 C 743.566406 354.625 743.519531 354.628906 743.46875 354.628906 C 743.09375 354.628906 742.765625 354.363281 742.691406 353.984375 Z M 696.386719 365.4375 L 700.898438 354.363281 C 701.0625 353.953125 701.527344 353.761719 701.925781 353.929688 C 702.328125 354.089844 702.523438 354.550781 702.359375 354.957031 L 697.84375 366.03125 C 697.722656 366.335938 697.425781 366.519531 697.117188 366.519531 C 697.019531 366.519531 696.917969 366.503906 696.816406 366.464844 C 696.414062 366.300781 696.21875 365.839844 696.386719 365.4375 Z M 879.867188 507.261719 L 822.222656 507.261719 L 812.355469 506.871094 L 812.355469 499.40625 L 879.867188 499.40625 C 882.03125 499.40625 883.796875 501.167969 883.796875 503.335938 C 883.796875 505.5 882.03125 507.261719 879.867188 507.261719 Z M 842.152344 637.347656 L 870.472656 650.832031 C 871.617188 651.371094 871.820312 652.46875 871.640625 653.238281 C 871.46875 654.007812 870.820312 654.910156 869.554688 654.910156 L 812.355469 654.910156 L 812.355469 508.839844 L 821.441406 508.839844 L 821.441406 604.550781 C 821.441406 618.484375 829.574219 631.359375 842.152344 637.347656 Z M 544.898438 654.851562 L 544.898438 432.550781 L 810.773438 432.550781 L 810.773438 498.046875 C 810.621094 498.1875 810.523438 498.390625 810.523438 498.617188 C 810.523438 498.84375 810.621094 499.046875 810.773438 499.191406 L 810.773438 507.476562 C 810.621094 507.621094 810.523438 507.820312 810.523438 508.050781 C 810.523438 508.277344 810.621094 508.476562 810.773438 508.621094 L 810.773438 654.851562 Z M 661.582031 424.761719 L 810.773438 424.761719 L 810.773438 430.566406 L 544.898438 430.566406 L 544.898438 424.761719 Z M 662.371094 419.222656 L 711.394531 419.222656 C 711.453125 419.277344 711.507812 419.335938 711.578125 419.367188 C 711.839844 419.476562 712.144531 419.433594 712.371094 419.261719 C 712.371094 419.257812 712.402344 419.238281 712.417969 419.222656 L 785.019531 419.222656 C 784.644531 421.46875 782.6875 423.183594 780.339844 423.183594 L 662.371094 423.183594 Z M 731.054688 385.296875 C 731.238281 385.21875 731.410156 385.09375 731.488281 384.886719 L 731.570312 384.683594 L 736.367188 378.960938 C 740.433594 374.109375 746.832031 371.78125 753.070312 372.878906 L 817.171875 384.144531 C 817.53125 384.210938 817.882812 384.019531 818.03125 383.6875 L 825.917969 365.949219 L 863.835938 382.535156 L 854.550781 402.195312 C 846.554688 419.128906 826.660156 426.980469 809.25 420.066406 L 749.09375 396.167969 C 749 396.132812 748.898438 396.113281 748.804688 396.113281 C 748.5625 396.113281 748.328125 396.226562 748.175781 396.425781 C 748.085938 396.542969 739.21875 408.101562 729.367188 410.074219 C 721.238281 411.699219 714.957031 415.542969 712.507812 417.21875 L 711.480469 408.632812 Z M 879.867188 497.828125 L 812.355469 497.828125 L 812.355469 423.972656 C 812.355469 423.535156 812 423.183594 811.566406 423.183594 L 784.476562 423.183594 C 785.804688 422.023438 786.664062 420.335938 786.664062 418.433594 C 786.664062 418 786.3125 417.648438 785.875 417.648438 L 714.769531 417.648438 C 717.703125 415.820312 723.105469 412.9375 729.679688 411.621094 C 739.046875 409.746094 747.222656 400.144531 749.0625 397.855469 L 808.667969 421.53125 C 813.136719 423.304688 817.761719 424.152344 822.320312 424.152344 C 836.3125 424.152344 849.679688 416.207031 855.976562 402.867188 L 865.601562 382.488281 L 876.25 362.828125 C 876.460938 362.441406 876.320312 361.96875 875.9375 361.757812 C 875.554688 361.550781 875.074219 361.6875 874.863281 362.074219 L 864.542969 381.125 L 826.507812 364.484375 L 848.746094 303.613281 C 848.894531 303.207031 848.679688 302.753906 848.273438 302.605469 C 847.863281 302.457031 847.410156 302.667969 847.261719 303.078125 L 824.78125 364.613281 L 816.839844 382.484375 L 753.339844 371.320312 C 746.558594 370.125 739.589844 372.667969 735.15625 377.949219 L 733.371094 380.078125 L 738.871094 366.023438 C 739.03125 365.613281 738.832031 365.160156 738.421875 364.996094 C 738.019531 364.835938 737.558594 365.039062 737.402344 365.445312 L 730.191406 383.867188 L 710.046875 407.882812 C 709.910156 408.046875 709.84375 408.265625 709.871094 408.480469 L 710.96875 417.648438 L 661.582031 417.648438 C 661.144531 417.648438 660.792969 418 660.792969 418.433594 L 660.792969 423.183594 L 544.105469 423.183594 C 543.671875 423.183594 543.316406 423.535156 543.316406 423.972656 L 543.316406 655.640625 C 543.316406 656.078125 543.671875 656.429688 544.105469 656.429688 L 811.558594 656.429688 C 811.644531 656.464844 811.738281 656.488281 811.839844 656.488281 L 869.554688 656.488281 C 871.332031 656.488281 872.792969 655.324219 873.183594 653.585938 C 873.574219 651.847656 872.757812 650.171875 871.15625 649.40625 L 842.832031 635.925781 C 830.796875 630.191406 823.019531 617.878906 823.019531 604.550781 L 823.019531 508.839844 L 879.867188 508.839844 C 882.902344 508.839844 885.371094 506.371094 885.371094 503.335938 C 885.371094 500.300781 882.902344 497.828125 879.867188 497.828125 "/>
</g>
<path style=" stroke:none;fill-rule:nonzero;fill:rgb(6.269836%,5.879211%,5.099487%);fill-opacity:1;" d="M 716.808594 176.660156 C 716.808594 176.660156 722.136719 200.859375 741.417969 197.578125 C 760.699219 194.296875 772.597656 186.5 772.597656 186.5 C 772.597656 186.5 773.414062 202.085938 784.902344 201.269531 C 784.902344 201.269531 785.308594 191.015625 791.054688 187.324219 C 796.800781 183.632812 798.851562 190.195312 798.851562 190.195312 C 798.851562 190.195312 803.773438 164.765625 787.363281 159.023438 C 770.953125 153.28125 757.417969 162.304688 745.523438 168.867188 C 733.625 175.429688 731.984375 177.886719 731.984375 177.886719 C 731.984375 177.886719 720.085938 166.40625 716.808594 176.660156 Z M 744.25 215.839844 C 743.570312 215.839844 743.023438 216.386719 743.023438 217.0625 C 743.023438 217.742188 743.570312 218.292969 744.25 218.292969 C 744.925781 218.292969 745.472656 217.742188 745.472656 217.0625 C 745.472656 216.386719 744.925781 215.839844 744.25 215.839844 Z M 759.875 212.144531 C 759.195312 212.144531 758.648438 212.691406 758.648438 213.367188 C 758.648438 214.050781 759.195312 214.597656 759.875 214.597656 C 760.550781 214.597656 761.101562 214.050781 761.101562 213.367188 C 761.101562 212.691406 760.550781 212.144531 759.875 212.144531 Z M 682.960938 329.84375 L 719.882812 423.359375 L 594.355469 423.359375 L 558.667969 329.84375 L 682.960938 329.84375 "/>
</g>
</svg>
